<svg width="65" height="66" viewBox="0 0 65 66" fill="none" xmlns="http://www.w3.org/2000/svg">
<path d="M64 57.4002H62.8V22.1002C62.8 21.8002 62.7 21.5002 62.4 21.3002L51.9 12.4002C51.6 12.1002 51.2 12.1002 50.8 12.3002C50.4 12.5002 50.2 12.8002 50.2 13.2002V57.4002H47.8V1.7002C47.8 1.1002 47.4 0.700195 46.8 0.700195H18.1C17.5 0.700195 17.1 1.1002 17.1 1.7002V57.4002H14.7V13.2002C14.7 12.8002 14.5 12.5002 14.1 12.3002C13.7 12.1002 13.3 12.2002 13 12.4002L2.5 21.3002C2.3 21.5002 2.1 21.8002 2.1 22.1002V57.5002H1C0.4 57.5002 0 57.9002 0 58.5002V64.3002C0 64.9002 0.4 65.3002 1 65.3002H64C64.6 65.3002 65 64.9002 65 64.3002V58.5002C65 57.9002 64.6 57.4002 64 57.4002ZM52.3 15.4002L60.8 22.6002V57.5002H52.3V15.4002ZM19.1 2.7002H45.9V57.4002H19.1V2.7002ZM4.2 22.5002L12.7 15.3002V57.4002H4.2V22.5002ZM63 63.3002H2V59.5002H63V63.3002Z" fill="white"/>
<path d="M30 5.7002H23C22.4 5.7002 22 6.1002 22 6.7002V15.0002C22 15.6002 22.4 16.0002 23 16.0002H30C30.6 16.0002 31 15.6002 31 15.0002V6.7002C31 6.1002 30.6 5.7002 30 5.7002ZM29 14.0002H24V7.7002H29V14.0002Z" fill="white"/>
<path d="M42 5.7002H35C34.4 5.7002 34 6.1002 34 6.7002V15.0002C34 15.6002 34.4 16.0002 35 16.0002H42C42.6 16.0002 43 15.6002 43 15.0002V6.7002C43 6.1002 42.5 5.7002 42 5.7002ZM41 14.0002H36V7.7002H41V14.0002Z" fill="white"/>
<path d="M30 18.5H23C22.4 18.5 22 18.9 22 19.5V27.9C22 28.5 22.4 28.9 23 28.9H30C30.6 28.9 31 28.5 31 27.9V19.5C31 18.9 30.6 18.5 30 18.5ZM29 26.8H24V20.4H29V26.8Z" fill="white"/>
<path d="M42 18.5H35C34.4 18.5 34 18.9 34 19.5V27.9C34 28.5 34.4 28.9 35 28.9H42C42.6 28.9 43 28.5 43 27.9V19.5C43 18.9 42.5 18.5 42 18.5ZM41 26.8H36V20.4H41V26.8Z" fill="white"/>
<path d="M30 31.3003H23C22.4 31.3003 22 31.7003 22 32.3003V40.7003C22 41.3003 22.4 41.7003 23 41.7003H30C30.6 41.7003 31 41.3003 31 40.7003V32.3003C31 31.8003 30.6 31.3003 30 31.3003ZM29 39.7003H24V33.3003H29V39.7003Z" fill="white"/>
<path d="M42 31.3003H35C34.4 31.3003 34 31.7003 34 32.3003V40.7003C34 41.3003 34.4 41.7003 35 41.7003H42C42.6 41.7003 43 41.3003 43 40.7003V32.3003C43 31.8003 42.5 31.3003 42 31.3003ZM41 39.7003H36V33.3003H41V39.7003Z" fill="white"/>
<path d="M30 44.1001H23C22.4 44.1001 22 44.5001 22 45.1001V53.5001C22 54.1001 22.4 54.5001 23 54.5001H30C30.6 54.5001 31 54.1001 31 53.5001V45.1001C31 44.6001 30.6 44.1001 30 44.1001ZM29 52.5001H24V46.1001H29V52.5001Z" fill="white"/>
<path d="M42 44.1001H35C34.4 44.1001 34 44.5001 34 45.1001V53.5001C34 54.1001 34.4 54.5001 35 54.5001H42C42.6 54.5001 43 54.1001 43 53.5001V45.1001C43 44.6001 42.5 44.1001 42 44.1001ZM41 52.5001H36V46.1001H41V52.5001Z" fill="white"/>
<path d="M58.1 25.3003H55C54.4 25.3003 54 25.7003 54 26.3003C54 26.9003 54.4 27.3003 55 27.3003H58.1C58.7 27.3003 59.1 26.9003 59.1 26.3003C59.1 25.8003 58.7 25.3003 58.1 25.3003Z" fill="white"/>
<path d="M58.1 34.4004H55C54.4 34.4004 54 34.8004 54 35.4004C54 36.0004 54.4 36.4004 55 36.4004H58.1C58.7 36.4004 59.1 36.0004 59.1 35.4004C59.1 34.8004 58.7 34.4004 58.1 34.4004Z" fill="white"/>
<path d="M58.1 43.4004H55C54.4 43.4004 54 43.8004 54 44.4004C54 45.0004 54.4 45.4004 55 45.4004H58.1C58.7 45.4004 59.1 45.0004 59.1 44.4004C59.1 43.9004 58.7 43.4004 58.1 43.4004Z" fill="white"/>
<path d="M58.1 52.5H55C54.4 52.5 54 52.9 54 53.5C54 54.1 54.4 54.5 55 54.5H58.1C58.7 54.5 59.1 54.1 59.1 53.5C59.1 52.9 58.7 52.5 58.1 52.5Z" fill="white"/>
<path d="M10 25.3003H6.90002C6.30002 25.3003 5.90002 25.7003 5.90002 26.3003C5.90002 26.9003 6.30002 27.3003 6.90002 27.3003H10C10.6 27.3003 11 26.9003 11 26.3003C11 25.8003 10.6 25.3003 10 25.3003Z" fill="white"/>
<path d="M10 34.4004H6.90002C6.30002 34.4004 5.90002 34.8004 5.90002 35.4004C5.90002 36.0004 6.30002 36.4004 6.90002 36.4004H10C10.6 36.4004 11 36.0004 11 35.4004C11 34.8004 10.6 34.4004 10 34.4004Z" fill="white"/>
<path d="M10 43.4004H6.90002C6.30002 43.4004 5.90002 43.8004 5.90002 44.4004C5.90002 45.0004 6.30002 45.4004 6.90002 45.4004H10C10.6 45.4004 11 45.0004 11 44.4004C11 43.9004 10.6 43.4004 10 43.4004Z" fill="white"/>
<path d="M10 52.5H6.90002C6.30002 52.5 5.90002 52.9 5.90002 53.5C5.90002 54.1 6.30002 54.5 6.90002 54.5H10C10.6 54.5 11 54.1 11 53.5C11 52.9 10.6 52.5 10 52.5Z" fill="white"/>
</svg>
