<svg width="26" height="26" viewBox="0 0 26 26" fill="none" xmlns="http://www.w3.org/2000/svg">
<path d="M23.0041 18.7784H20.9165V23.1108C20.9165 24.7053 19.6696 26 18.134 26H3.52867C1.99301 26 0.746094 24.7053 0.746094 23.1108V7.94592C0.746094 6.34878 1.99301 5.05674 3.52867 5.05674H7.70125V2.89184C7.70125 1.29469 8.94816 0 10.4838 0H23.0041C24.5398 0 25.7867 1.29469 25.7867 2.88918V15.8892C25.7867 17.4837 24.5398 18.7784 23.0041 18.7784ZM24.3967 2.88918C24.3967 2.09061 23.7732 1.44592 23.0067 1.44592H10.4864C9.71727 1.44592 9.09636 2.09327 9.09636 2.88918V5.05674H16.3326L14.9375 6.5H3.52867C2.75956 6.5 2.13866 7.14735 2.13866 7.94327V23.1108C2.13866 23.9094 2.76212 24.5567 3.52867 24.5567H18.1365C18.9056 24.5567 19.5265 23.9094 19.5265 23.1108V11.2622L20.9165 9.81898V17.3351H23.0041C23.7732 17.3351 24.3941 16.6878 24.3941 15.8892V2.88918H24.3967Z" fill="white" fill-opacity="0.7"/>
<path d="M9.35263 10.8333H4.65752C4.22535 10.8333 3.875 11.1971 3.875 11.6458C3.875 12.0945 4.22535 12.4583 4.65752 12.4583H9.35263C9.7848 12.4583 10.1351 12.0945 10.1351 11.6458C10.1351 11.1971 9.7848 10.8333 9.35263 10.8333Z" fill="white" fill-opacity="0.7"/>
<path d="M9.35263 15.1667H4.65752C4.22535 15.1667 3.875 15.5305 3.875 15.9792C3.875 16.4279 4.22535 16.7917 4.65752 16.7917H9.35263C9.7848 16.7917 10.1351 16.4279 10.1351 15.9792C10.1351 15.5305 9.7848 15.1667 9.35263 15.1667Z" fill="white" fill-opacity="0.7"/>
<path d="M9.35263 19.5H4.65752C4.22535 19.5 3.875 19.8638 3.875 20.3125C3.875 20.7612 4.22535 21.125 4.65752 21.125H9.35263C9.7848 21.125 10.1351 20.7612 10.1351 20.3125C10.1351 19.8638 9.7848 19.5 9.35263 19.5Z" fill="white" fill-opacity="0.7"/>
<path d="M16.6573 10.8333H11.9622C11.53 10.8333 11.1797 11.1971 11.1797 11.6458C11.1797 12.0945 11.53 12.4583 11.9622 12.4583H16.6573C17.0895 12.4583 17.4398 12.0945 17.4398 11.6458C17.4398 11.1971 17.0895 10.8333 16.6573 10.8333Z" fill="white" fill-opacity="0.7"/>
<path d="M16.6573 15.1667H11.9622C11.53 15.1667 11.1797 15.5305 11.1797 15.9792C11.1797 16.4279 11.53 16.7917 11.9622 16.7917H16.6573C17.0895 16.7917 17.4398 16.4279 17.4398 15.9792C17.4398 15.5305 17.0895 15.1667 16.6573 15.1667Z" fill="white" fill-opacity="0.7"/>
<path d="M16.6573 19.5H11.9622C11.53 19.5 11.1797 19.8638 11.1797 20.3125C11.1797 20.7612 11.53 21.125 11.9622 21.125H16.6573C17.0895 21.125 17.4398 20.7612 17.4398 20.3125C17.4398 19.8638 17.0895 19.5 16.6573 19.5Z" fill="white" fill-opacity="0.7"/>
</svg>
