<svg width="26" height="26" viewBox="0 0 26 26" fill="none" xmlns="http://www.w3.org/2000/svg">
<path d="M19.6008 0C21.3294 0 22.7308 1.45507 22.7308 3.25V8.66667H21.1658V3.25C21.1658 2.35254 20.4651 1.625 19.6008 1.625H3.95039C3.08604 1.625 2.38535 2.35254 2.38535 3.25V22.75C2.38535 23.6475 3.08604 24.375 3.95039 24.375H19.6008C20.4651 24.375 21.1658 23.6475 21.1658 22.75V20.5833H22.7308V22.75C22.7308 24.5449 21.3294 26 19.6008 26H3.95039C2.22169 26 0.820312 24.5449 0.820312 22.75V3.25C0.820312 1.45507 2.22169 0 3.95039 0H19.6008Z" fill="white" fill-opacity="0.7"/>
<path d="M7.67511 10.8334H5.43934C5.19218 10.8334 4.99219 10.6257 4.99219 10.3691V8.04766C4.99219 7.79103 5.19218 7.58337 5.43934 7.58337H7.67511C7.92227 7.58337 8.12226 7.79103 8.12226 8.04766V10.3691C8.12226 10.6257 7.92227 10.8334 7.67511 10.8334ZM6.03555 9.75004H7.0789V8.66671H6.03555V9.75004Z" fill="white" fill-opacity="0.7"/>
<path d="M7.67511 16.25H5.43934C5.19218 16.25 4.99219 16.0423 4.99219 15.7857V13.4643C4.99219 13.2077 5.19218 13 5.43934 13H7.67511C7.92227 13 8.12226 13.2077 8.12226 13.4643V15.7857C8.12226 16.0423 7.92227 16.25 7.67511 16.25ZM6.03555 15.1667H7.0789V14.0833H6.03555V15.1667Z" fill="white" fill-opacity="0.7"/>
<path d="M7.67511 21.6666H5.43934C5.19218 21.6666 4.99219 21.459 4.99219 21.2023V18.8809C4.99219 18.6243 5.19218 18.4166 5.43934 18.4166H7.67511C7.92227 18.4166 8.12226 18.6243 8.12226 18.8809V21.2023C8.12226 21.459 7.92227 21.6666 7.67511 21.6666ZM6.03555 20.5833H7.0789V19.5H6.03555V20.5833Z" fill="white" fill-opacity="0.7"/>
<path d="M18.969 10.0519H9.83507C9.46633 10.0519 9.16797 9.74215 9.16797 9.35928C9.16797 8.97642 9.46633 8.66663 9.83507 8.66663H18.969C19.3378 8.66663 19.6361 8.97642 19.6361 9.35928C19.6361 9.74215 19.3378 10.0519 18.969 10.0519Z" fill="white" fill-opacity="0.7"/>
<path d="M15.8807 15.4687H9.75877C9.4322 15.4687 9.16797 15.1589 9.16797 14.776C9.16797 14.3932 9.4322 14.0834 9.75877 14.0834H15.8807C16.2072 14.0834 16.4715 14.3932 16.4715 14.776C16.4715 15.1589 16.2072 15.4687 15.8807 15.4687Z" fill="white" fill-opacity="0.7"/>
<path d="M23.3661 11.6917L25.5381 14.1133C25.5667 14.1429 25.5913 14.1752 25.6121 14.2095C25.7631 14.3346 25.8621 14.5416 25.8621 14.776C25.8621 15.03 25.7458 15.2519 25.5721 15.3724L25.5111 15.4292L23.0357 17.5133C22.7749 17.7174 22.3843 17.6351 22.1624 17.3293C21.9405 17.0235 21.9719 16.611 22.2327 16.407L23.3466 15.4683L19.1494 15.4686C18.8228 15.4686 18.5586 15.1588 18.5586 14.776C18.5586 14.3931 18.8228 14.0833 19.1494 14.0833L23.6888 14.0827L22.4227 12.6713C22.1918 12.4315 22.2159 12.0185 22.4767 11.7477C22.7374 11.477 23.1352 11.452 23.3661 11.6917Z" fill="white" fill-opacity="0.7"/>
<path d="M18.969 20.8853H9.83507C9.46633 20.8853 9.16797 20.5755 9.16797 20.1927C9.16797 19.8098 9.46633 19.5 9.83507 19.5H18.969C19.3378 19.5 19.6361 19.8098 19.6361 20.1927C19.6361 20.5755 19.3378 20.8853 18.969 20.8853Z" fill="white" fill-opacity="0.7"/>
<path d="M2.38672 4.875H21.1672" stroke="white" stroke-opacity="0.7" stroke-width="1.5" stroke-linecap="square"/>
</svg>
