<svg width="24" height="24" viewBox="0 0 24 24" fill="none" xmlns="http://www.w3.org/2000/svg">
<path d="M19.9339 0L23.7863 4V21C23.7863 22.6569 22.4927 24 20.897 24H3.56117C1.96546 24 0.671875 22.6569 0.671875 21V3C0.671875 1.34315 1.96546 0 3.56117 0H19.9339ZM18.9708 1.499L3.56117 1.5C2.76332 1.5 2.11652 2.17157 2.11652 3V21C2.11652 21.8284 2.76332 22.5 3.56117 22.5H20.897C21.6948 22.5 22.3416 21.8284 22.3416 21V5H18.9708V1.499ZM9.36205 17.1649C10.1362 17.1649 10.1714 18.3533 9.46762 18.4614L9.36205 18.4692H6.09488C5.32169 18.4692 5.28654 17.2808 5.98944 17.1727L6.09488 17.1649H9.36205ZM18.0299 17.1649C18.8041 17.1649 18.8393 18.3533 18.1355 18.4614L18.0299 18.4692H14.7628C13.9896 18.4692 13.9544 17.2808 14.6573 17.1727L14.7628 17.1649H18.0299ZM9.36205 14.0348C10.1362 14.0348 10.1714 15.2232 9.46762 15.3313L9.36205 15.3391H6.09488C5.32169 15.3391 5.28654 14.1507 5.98944 14.0426L6.09488 14.0348H9.36205ZM18.0299 14.0348C18.8041 14.0348 18.8393 15.2232 18.1355 15.3313L18.0299 15.3391H14.7628C13.9896 15.3391 13.9544 14.1507 14.6573 14.0426L14.7628 14.0348H18.0299ZM9.36205 11.1306C10.1362 11.1306 10.1714 12.3191 9.46762 12.4271L9.36205 12.435H6.09488C5.32169 12.435 5.28654 11.2465 5.98944 11.1384L6.09488 11.1306H9.36205ZM18.0299 11.1306C18.8041 11.1306 18.8393 12.3191 18.1355 12.4271L18.0299 12.435H14.7628C13.9896 12.435 13.9544 11.2465 14.6573 11.1384L14.7628 11.1306H18.0299ZM18.0299 8C18.8036 8 18.8388 9.18847 18.1354 9.29651L18.0299 9.30435H14.7628C13.9901 9.30435 13.9549 8.11588 14.6574 8.00784L14.7628 8H18.0299ZM9.36205 8C10.1726 8 10.1726 9.30435 9.36205 9.30435H6.09488C5.28537 9.30435 5.28537 8 6.09488 8H9.36205Z" fill="white"/>
</svg>
