<svg width="22" height="26" viewBox="0 0 22 26" fill="none" xmlns="http://www.w3.org/2000/svg">
<path fill-rule="evenodd" clip-rule="evenodd" d="M8.8695 23.9688H3.68054C3.14122 23.9688 2.70239 23.5131 2.70239 22.9531V5.07812C2.70239 4.51814 3.14122 4.0625 3.68054 4.0625H5.29448V8.07422H15.076V4.0625H16.641C17.1803 4.0625 17.6191 4.51814 17.6191 5.07812V10.4072C18.3029 10.5389 18.9587 10.7549 19.5754 11.0451V5.07812C19.5754 3.39798 18.2591 2.03125 16.641 2.03125H12.9521C12.5483 0.848999 11.4604 0 10.1852 0C8.91 0 7.82219 0.848999 7.41832 2.03125H3.68054C2.06239 2.03125 0.746094 3.39798 0.746094 5.07812V22.9531C0.746094 24.6333 2.06239 26 3.68054 26H10.6137C9.93744 25.4204 9.34845 24.735 8.8695 23.9688ZM9.20707 4.0625V3.04688C9.20707 2.48689 9.6459 2.03125 10.1852 2.03125C10.7245 2.03125 11.1634 2.48689 11.1634 3.04688V4.0625H13.1197V6.04297H7.25078V4.0625H9.20707Z" fill="white" fill-opacity="0.7"/>
<path d="M7.7872 9.75H5.70049C5.26831 9.75 4.91797 10.1138 4.91797 10.5625C4.91797 11.0112 5.26831 11.375 5.70049 11.375H7.7872C8.21938 11.375 8.56972 11.0112 8.56972 10.5625C8.56972 10.1138 8.21938 9.75 7.7872 9.75Z" fill="white" fill-opacity="0.7"/>
<path d="M7.7872 13H5.70049C5.26831 13 4.91797 13.3638 4.91797 13.8125C4.91797 14.2612 5.26831 14.625 5.70049 14.625H7.7872C8.21938 14.625 8.56972 14.2612 8.56972 13.8125C8.56972 13.3638 8.21938 13 7.7872 13Z" fill="white" fill-opacity="0.7"/>
<path d="M7.7872 16.25H5.70049C5.26831 16.25 4.91797 16.6138 4.91797 17.0625C4.91797 17.5112 5.26831 17.875 5.70049 17.875H7.7872C8.21938 17.875 8.56972 17.5112 8.56972 17.0625C8.56972 16.6138 8.21938 16.25 7.7872 16.25Z" fill="white" fill-opacity="0.7"/>
<path d="M7.7872 19.5H5.70049C5.26831 19.5 4.91797 19.8638 4.91797 20.3125C4.91797 20.7612 5.26831 21.125 5.70049 21.125H7.7872C8.21938 21.125 8.56972 20.7612 8.56972 20.3125C8.56972 19.8638 8.21938 19.5 7.7872 19.5Z" fill="white" fill-opacity="0.7"/>
<path d="M15.0919 9.75H13.0052C12.573 9.75 12.2227 10.1138 12.2227 10.5625C12.2227 11.0112 12.573 11.375 13.0052 11.375H15.0919C15.5241 11.375 15.8744 11.0112 15.8744 10.5625C15.8744 10.1138 15.5241 9.75 15.0919 9.75Z" fill="white" fill-opacity="0.7"/>
<path fill-rule="evenodd" clip-rule="evenodd" d="M16.138 18.6508C16.138 18.7997 16.2542 18.9196 16.3971 18.9196C16.54 18.9196 16.6563 18.7989 16.6563 18.6508C16.6565 18.3358 16.7642 18.0297 16.9598 17.7889C17.3949 17.2533 17.721 16.6725 17.9275 16.0629C17.9554 15.9805 17.9432 15.8893 17.8947 15.818C17.8459 15.7467 17.7673 15.7043 17.6831 15.7043H15.1109C15.0267 15.7043 14.9478 15.7467 14.8991 15.818C14.8505 15.8893 14.8384 15.9805 14.8663 16.0629C15.0733 16.6725 15.3989 17.2533 15.834 17.7889C16.0298 18.0297 16.1377 18.3361 16.138 18.6508Z" fill="white" fill-opacity="0.7"/>
<path fill-rule="evenodd" clip-rule="evenodd" d="M16.6571 19.7291C16.6571 19.5805 16.5408 19.4603 16.3979 19.4603C16.255 19.4603 16.1388 19.581 16.1388 19.7291C16.1385 20.1176 15.9151 20.5018 15.5096 20.8135C14.6424 21.4784 13.9933 22.2007 13.5804 22.96C13.535 23.0436 13.5357 23.1454 13.5826 23.2276C13.6287 23.3104 13.7141 23.3611 13.8063 23.3611H18.9901C19.082 23.3611 19.1672 23.3104 19.2138 23.2276C19.2601 23.1454 19.2608 23.0436 19.2157 22.96C18.803 22.2007 18.1537 21.4784 17.2867 20.8135C16.8808 20.5018 16.6573 20.1176 16.6571 19.7291Z" fill="white" fill-opacity="0.7"/>
<path fill-rule="evenodd" clip-rule="evenodd" d="M20.9332 23.7651H20.7781C20.6 21.6707 19.4189 20.0628 18.5007 18.9208C19.4191 17.779 20.5998 16.1709 20.7786 14.0765H20.9337C21.22 14.0765 21.4519 13.8354 21.4519 13.5381C21.4519 13.2409 21.22 13 20.9337 13H11.862C11.5757 13 11.3438 13.2411 11.3438 13.5381C11.3438 13.8354 11.5757 14.0765 11.862 14.0765H12.0171C12.1954 16.1711 13.3761 17.7793 14.2945 18.9208C13.3764 20.0626 12.1954 21.6704 12.0168 23.7651H11.862C11.5757 23.7651 11.3438 24.0057 11.3438 24.3029C11.3438 24.6005 11.5757 24.8416 11.862 24.8416H12.5101H20.2853H20.9337C21.22 24.8416 21.4519 24.6005 21.4519 24.3029C21.4519 24.0057 21.2197 23.7651 20.9332 23.7651ZM13.0561 23.7651C13.2509 21.8728 14.4357 20.4155 15.3211 19.3267L15.3684 19.2685C15.5315 19.0682 15.5315 18.7749 15.3684 18.5744L15.3214 18.5164C14.4362 17.4273 13.2509 15.9701 13.0561 14.0775H19.7394C19.5445 15.9701 18.3592 17.4273 17.4741 18.5164L17.4273 18.5744C17.2642 18.7747 17.2642 19.0679 17.4273 19.2685L17.4746 19.3267C18.3597 20.4155 19.5445 21.8728 19.7394 23.7651H13.0561Z" fill="white" fill-opacity="0.7"/>
</svg>
