<svg width="23" height="26" viewBox="0 0 23 26" fill="none" xmlns="http://www.w3.org/2000/svg">
<path fill-rule="evenodd" clip-rule="evenodd" d="M16.0541 12.2891C12.4136 12.2891 9.45161 15.3645 9.45161 19.1445C9.45161 22.9246 12.4136 26 16.0541 26C19.6947 26 22.6566 22.9246 22.6566 19.1445C22.6566 15.3645 19.6947 12.2891 16.0541 12.2891ZM16.0541 23.9688C13.4922 23.9688 11.4079 21.8046 11.4079 19.1445C11.4079 16.4845 13.4922 14.3203 16.0541 14.3203C18.616 14.3203 20.7003 16.4845 20.7003 19.1445C20.7003 21.8046 18.616 23.9688 16.0541 23.9688ZM8.8695 23.9688H3.68054C3.14122 23.9688 2.70239 23.5131 2.70239 22.9531V5.07812C2.70239 4.51814 3.14122 4.0625 3.68054 4.0625H5.29448V8.07422H15.076V4.0625H16.641C17.1803 4.0625 17.6191 4.51814 17.6191 5.07812V10.4072C18.3029 10.5389 18.9588 10.7549 19.5754 11.0451V5.07812C19.5754 3.39798 18.2591 2.03125 16.641 2.03125H12.9521C12.5483 0.848999 11.4604 0 10.1852 0C8.91 0 7.82219 0.848999 7.41832 2.03125H3.68054C2.06239 2.03125 0.746094 3.39798 0.746094 5.07812V22.9531C0.746094 24.6333 2.06239 26 3.68054 26H10.6137C9.93744 25.4204 9.34845 24.735 8.8695 23.9688ZM9.20708 4.0625V3.04688C9.20708 2.48689 9.6459 2.03125 10.1852 2.03125C10.7245 2.03125 11.1634 2.48689 11.1634 3.04688V4.0625H13.1197V6.04297H7.25078V4.0625H9.20708ZM16.9834 18.1289H18.6462V20.1602H15.0271V15.7422H16.9834V18.1289Z" fill="white" fill-opacity="0.7"/>
</svg>
