<svg width="24" height="24" viewBox="0 0 24 24" fill="none" xmlns="http://www.w3.org/2000/svg">
<path d="M6.41373 9.1544C6.25078 9.1544 6.09445 9.08759 5.97838 8.96707L4.74681 7.68832C4.50627 7.43856 4.50627 7.03391 4.74681 6.78424C4.98735 6.53456 5.37707 6.53448 5.61753 6.78424L6.347 7.54166L7.76861 5.57422C7.97243 5.29138 8.35914 5.23519 8.63032 5.44619C8.90273 5.65782 8.95807 6.05871 8.75363 6.34091L6.90628 8.89841C6.79921 9.04699 6.63565 9.13946 6.45769 9.15257C6.4426 9.15376 6.42821 9.1544 6.41373 9.1544Z" fill="white" fill-opacity="0.7"/>
<path d="M6.41373 14.2694C6.25078 14.2694 6.09445 14.2025 5.97838 14.082L4.74681 12.8033C4.50627 12.5535 4.50627 12.1489 4.74681 11.8992C4.98735 11.6495 5.37707 11.6494 5.61753 11.8992L6.347 12.6566L7.76861 10.6892C7.97243 10.407 8.35914 10.3495 8.63032 10.5611C8.90273 10.7728 8.95807 11.1737 8.75363 11.4559L6.90628 14.0134C6.79921 14.1619 6.63565 14.2544 6.45769 14.2675C6.4426 14.2687 6.42821 14.2694 6.41373 14.2694Z" fill="white" fill-opacity="0.7"/>
<path d="M8.2611 20.6631H5.18219C4.84181 20.6631 4.56641 20.3772 4.56641 20.0238V16.8269C4.56641 16.4735 4.84181 16.1875 5.18219 16.1875H8.2611C8.60147 16.1875 8.87688 16.4735 8.87688 16.8269V20.0238C8.87688 20.3772 8.60147 20.6631 8.2611 20.6631ZM5.79797 19.3844H7.64532V17.4663H5.79797V19.3844Z" fill="white" fill-opacity="0.7"/>
<path d="M16.2672 6.59687H10.7252C10.3848 6.59687 10.1094 6.31091 10.1094 5.95749C10.1094 5.60408 10.3848 5.31812 10.7252 5.31812H16.2672C16.6076 5.31812 16.883 5.60408 16.883 5.95749C16.883 6.31091 16.6076 6.59687 16.2672 6.59687Z" fill="white" fill-opacity="0.7"/>
<path d="M13.1883 8.51502H10.7252C10.3848 8.51502 10.1094 8.22906 10.1094 7.87564C10.1094 7.52223 10.3848 7.23627 10.7252 7.23627H13.1883C13.5287 7.23627 13.8041 7.52223 13.8041 7.87564C13.8041 8.22906 13.5287 8.51502 13.1883 8.51502Z" fill="white" fill-opacity="0.7"/>
<path d="M16.2672 12.3513H10.7252C10.3848 12.3513 10.1094 12.0653 10.1094 11.7119C10.1094 11.3585 10.3848 11.0725 10.7252 11.0725H16.2672C16.6076 11.0725 16.883 11.3585 16.883 11.7119C16.883 12.0653 16.6076 12.3513 16.2672 12.3513Z" fill="white" fill-opacity="0.7"/>
<path d="M13.1883 14.2694H10.7252C10.3848 14.2694 10.1094 13.9834 10.1094 13.63C10.1094 13.2766 10.3848 12.9906 10.7252 12.9906H13.1883C13.5287 12.9906 13.8041 13.2766 13.8041 13.63C13.8041 13.9834 13.5287 14.2694 13.1883 14.2694Z" fill="white" fill-opacity="0.7"/>
<path d="M16.2672 17.4663H10.7252C10.3848 17.4663 10.1094 17.1803 10.1094 16.8269C10.1094 16.4735 10.3848 16.1875 10.7252 16.1875H16.2672C16.6076 16.1875 16.883 16.4735 16.883 16.8269C16.883 17.1803 16.6076 17.4663 16.2672 17.4663Z" fill="white" fill-opacity="0.7"/>
<path d="M13.1883 19.3844H10.7252C10.3848 19.3844 10.1094 19.0984 10.1094 18.745C10.1094 18.3916 10.3848 18.1057 10.7252 18.1057H13.1883C13.5287 18.1057 13.8041 18.3916 13.8041 18.745C13.8041 19.0984 13.5287 19.3844 13.1883 19.3844Z" fill="white" fill-opacity="0.7"/>
<path d="M19.6721 0L23.5245 4V21C23.5245 22.6569 22.231 24 20.6352 24H3.29946C1.70374 24 0.410156 22.6569 0.410156 21V3C0.410156 1.34315 1.70374 0 3.29946 0H19.6721ZM18.709 1.499L3.29946 1.5C2.5016 1.5 1.85481 2.17157 1.85481 3V21C1.85481 21.8284 2.5016 22.5 3.29946 22.5H20.6352C21.4331 22.5 22.0799 21.8284 22.0799 21V5H18.709V1.499Z" fill="white" fill-opacity="0.7"/>
</svg>
