<?xml version="1.0" encoding="iso-8859-1"?>
<!-- Generator: Adobe Illustrator 19.0.0, SVG Export Plug-In . SVG Version: 6.00 Build 0)  -->
<svg version="1.1" id="Capa_1" xmlns="http://www.w3.org/2000/svg" xmlns:xlink="http://www.w3.org/1999/xlink" x="0px" y="0px"
	 viewBox="0 0 512 512" style="enable-background:new 0 0 512 512;" xml:space="preserve">
<linearGradient id="SVGID_1_" gradientUnits="userSpaceOnUse" x1="0" y1="258" x2="512" y2="258" gradientTransform="matrix(1 0 0 -1 0 514)">
	<stop  offset="0" style="stop-color:#00F2FE"/>
	<stop  offset="0.021" style="stop-color:#03EFFE"/>
	<stop  offset="0.293" style="stop-color:#24D2FE"/>
	<stop  offset="0.554" style="stop-color:#3CBDFE"/>
	<stop  offset="0.796" style="stop-color:#4AB0FE"/>
	<stop  offset="1" style="stop-color:#4FACFE"/>
</linearGradient>
<path style="fill:url(#SVGID_1_);" d="M512,452c0,11.046-8.954,20-20,20H296c-11.046,0-20-8.954-20-20c0-11.028-8.972-20-20-20
	s-20,8.972-20,20s8.972,20,20,20c11.046,0,20,8.954,20,20s-8.954,20-20,20c-26.073,0-48.303-16.722-56.56-40H20
	c-11.046,0-20-8.954-20-20s8.954-20,20-20h179.44c6.036-17.018,19.541-30.524,36.56-36.56v-34.416l-113.998,0.013
	c-44.115,0-80.002-35.888-80.002-80V70c0-38.599,31.402-70,70-70h57c32.009,0,59.069,21.597,67.375,50.982l153.61,0.002
	c21.373,0,41.465,8.324,56.575,23.439c15.111,15.114,23.43,35.209,23.424,56.581l-0.018,50.002
	c-0.004,11.043-8.958,19.993-20,19.993c-0.002,0-0.004,0-0.007,0c-11.045-0.004-19.997-8.962-19.993-20.007l0.003-7.993L143,173.003
	c-11.045,0-20-8.954-20-20s8.954-20,20-20L429.984,133l0.001-2.007c0.003-10.685-4.156-20.731-11.712-28.289
	c-7.555-7.558-17.601-11.72-28.287-11.72L219,90.982c-11.046,0-20-8.954-20-20V70c0-16.542-13.458-30-30-30h-57
	c-16.542,0-30,13.458-30,30v211.037c0,22.056,17.944,40,40,40l267.949-0.03c22.048-0.003,39.99-17.941,39.996-39.989
	c0.003-11.044,8.957-19.995,20-19.995c0.002,0,0.003,0,0.005,0c11.046,0.003,19.998,8.96,19.995,20.005
	c-0.012,44.096-35.896,79.975-79.991,79.979L276,361.02v34.421c17.018,6.036,30.524,19.541,36.56,36.56H492
	C503.046,432,512,440.954,512,452z M123,243L123,243c0,11.046,8.954,20,20,20s20-8.954,20-20l0,0c0-11.046-8.954-20-20-20
	S123,231.954,123,243z M198,243L198,243c0,11.046,8.954,20,20,20s20-8.954,20-20l0,0c0-11.046-8.954-20-20-20S198,231.954,198,243z
	 M273,243L273,243c0,11.046,8.954,20,20,20s20-8.954,20-20l0,0c0-11.046-8.954-20-20-20S273,231.954,273,243z M349,243L349,243
	c0,11.046,8.954,20,20,20s20-8.954,20-20l0,0c0-11.046-8.954-20-20-20S349,231.954,349,243z"/>
<g>
</g>
<g>
</g>
<g>
</g>
<g>
</g>
<g>
</g>
<g>
</g>
<g>
</g>
<g>
</g>
<g>
</g>
<g>
</g>
<g>
</g>
<g>
</g>
<g>
</g>
<g>
</g>
<g>
</g>
</svg>
