<svg width="25" height="25" viewBox="0 0 25 25" fill="none" xmlns="http://www.w3.org/2000/svg">
<path fill-rule="evenodd" clip-rule="evenodd" d="M20.8132 1.77298H4.18674V13.7051H7.89872C8.46431 13.7051 8.92282 14.1638 8.92282 14.7296V17.7237H16.082V14.7296C16.082 14.1638 16.5406 13.7051 17.1061 13.7051H20.8132V1.77298ZM22.259 5.27416V1.5018C22.259 0.852786 21.7331 0.32666 21.0843 0.32666H3.91566C3.26689 0.32666 2.74096 0.852786 2.74096 1.5018V5.27412L0.00526699 13.6925L0.0441256 13.7051H0V22.6542C0 23.7858 0.917007 24.7031 2.04819 24.7031H22.9518C24.083 24.7031 25 23.7858 25 22.6542V13.7051H24.9558L24.9947 13.6925L22.259 5.27416ZM22.259 9.95235V13.7051H23.4785L22.259 9.95235ZM1.52142 13.7051H2.74096V9.95231L1.52142 13.7051ZM14.6081 4.51312H6.62114V5.37417H14.6081V4.51312ZM1.44579 15.1514V22.6542C1.44579 22.987 1.7155 23.2568 2.0482 23.2568H22.9518C23.2845 23.2568 23.5542 22.987 23.5542 22.6542V15.1514H17.5278V18.1456C17.5278 18.7114 17.0693 19.1701 16.5037 19.1701H8.50114C7.93554 19.1701 7.47704 18.7114 7.47704 18.1456V15.1514H1.44579ZM6.62114 6.47273H18.2898V7.33379H6.62114V6.47273ZM6.62114 8.43236H18.2898V9.29341H6.62114V8.43236ZM6.62114 10.392H18.2898V11.253H6.62114V10.392Z" fill="#0095E6"/>
</svg>
