<svg width="52" height="69" viewBox="0 0 52 69" fill="none" xmlns="http://www.w3.org/2000/svg">
<path d="M38.9945 16.609H13.8722C13.4971 16.609 13.145 16.4261 12.9283 16.1186C12.713 15.8119 12.6592 15.4184 12.7868 15.0648L16.6508 4.33915C16.8153 3.88181 17.2488 3.57666 17.7354 3.57666H35.129C35.6155 3.57666 36.0491 3.88104 36.2135 4.33915L40.0775 15.0648C40.2051 15.4176 40.1521 15.8112 39.9361 16.1186C39.7216 16.4268 39.3696 16.609 38.9945 16.609ZM15.5132 14.3031H37.3534L34.3204 5.88336H18.5463L15.5132 14.3031Z" fill="white"/>
<path d="M30.0106 5.88319C29.3742 5.88319 28.8577 5.36743 28.8577 4.73023C28.8577 3.39356 27.77 2.30593 26.4334 2.30593C25.0967 2.30593 24.0091 3.39356 24.0091 4.73023C24.0091 5.36743 23.4925 5.88319 22.8561 5.88319C22.2197 5.88319 21.7031 5.36743 21.7031 4.73023C21.7031 2.12146 23.8253 0 26.4334 0C29.0414 0 31.1636 2.12222 31.1636 4.73023C31.1636 5.36743 30.6471 5.88319 30.0106 5.88319Z" fill="white"/>
<path d="M44.9547 62.1421H7.91224C7.27581 62.1421 6.75928 61.6264 6.75928 60.9891V12.859C6.75928 12.2218 7.27581 11.7061 7.91224 11.7061H14.8085C15.4449 11.7061 15.9615 12.2218 15.9615 12.859C15.9615 13.4962 15.4449 14.012 14.8085 14.012H9.06521V59.8362H43.801V14.012H38.0577C37.4212 14.012 36.9047 13.4962 36.9047 12.859C36.9047 12.2218 37.4212 11.7061 38.0577 11.7061H44.9539C45.5904 11.7061 46.1069 12.2218 46.1069 12.859V60.9891C46.1077 61.6256 45.5911 62.1421 44.9547 62.1421Z" fill="white"/>
<path d="M46.7248 68.1794H6.14198C3.28263 68.1794 0.867554 65.9464 0.867554 63.3031V10.1591C0.867554 7.50344 3.2834 5.25977 6.14198 5.25977H17.1305C17.7669 5.25977 18.2835 5.77553 18.2835 6.41273C18.2835 7.04994 17.7669 7.56569 17.1305 7.56569H6.14198C4.73767 7.56569 3.17348 8.63103 3.17348 10.1591V63.3031C3.17348 64.8404 4.70846 65.8734 6.14198 65.8734H46.7256C48.1591 65.8734 49.6941 64.8404 49.6941 63.3031V10.1591C49.6941 8.63103 48.1299 7.56569 46.7256 7.56569H35.737C35.1006 7.56569 34.5841 7.04994 34.5841 6.41273C34.5841 5.77553 35.1006 5.25977 35.737 5.25977H46.7256C49.5849 5.25977 52 7.50344 52 10.1591V63.3031C52 65.9464 49.5842 68.1794 46.7248 68.1794Z" fill="white"/>
<path d="M15.2565 28.8643H13.2842C12.6478 28.8643 12.1312 28.3485 12.1312 27.7113V21.8927C12.1312 21.2555 12.6478 20.7397 13.2842 20.7397H19.1028C19.7393 20.7397 20.2558 21.2555 20.2558 21.8927V23.0949C20.2558 23.7321 19.7393 24.2478 19.1028 24.2478C18.4664 24.2478 17.9499 23.7321 17.9499 23.0949V23.0457H14.4372V26.5584H15.2565C15.893 26.5584 16.4095 27.0741 16.4095 27.7113C16.4095 28.3485 15.893 28.8643 15.2565 28.8643Z" fill="white"/>
<path d="M20.3203 29.6344C20.0252 29.6344 19.73 29.5222 19.5048 29.297L16.1481 25.9403C15.6977 25.4907 15.6977 24.7597 16.1481 24.3101C16.5985 23.8596 17.328 23.8596 17.7784 24.3101L20.3203 26.852L26.9306 20.2416C27.3811 19.7912 28.1105 19.7912 28.5609 20.2416C29.0114 20.6913 29.0114 21.4223 28.5609 21.8719L21.1358 29.297C20.9099 29.5215 20.6155 29.6344 20.3203 29.6344Z" fill="white"/>
<path d="M39.5854 25.9217H31.7084C31.0719 25.9217 30.5554 25.4059 30.5554 24.7687C30.5554 24.1315 31.0719 23.6157 31.7084 23.6157H39.5854C40.2219 23.6157 40.7384 24.1315 40.7384 24.7687C40.7384 25.4059 40.2219 25.9217 39.5854 25.9217Z" fill="white"/>
<path d="M15.2565 41.5562H13.2842C12.6478 41.5562 12.1312 41.0404 12.1312 40.4032V34.5846C12.1312 33.9474 12.6478 33.4316 13.2842 33.4316H19.1028C19.7393 33.4316 20.2558 33.9474 20.2558 34.5846V35.7868C20.2558 36.424 19.7393 36.9397 19.1028 36.9397C18.4664 36.9397 17.9499 36.424 17.9499 35.7868V35.7376H14.4372V39.2503H15.2565C15.893 39.2503 16.4095 39.766 16.4095 40.4032C16.4095 41.0404 15.893 41.5562 15.2565 41.5562Z" fill="white"/>
<path d="M20.3203 42.3268C20.0252 42.3268 19.73 42.2146 19.5048 41.9894L16.1481 38.6327C15.6977 38.1831 15.6977 37.4521 16.1481 37.0024C16.5985 36.552 17.328 36.552 17.7784 37.0024L20.3203 39.5443L26.9306 32.934C27.3811 32.4836 28.1105 32.4836 28.5609 32.934C29.0114 33.3837 29.0114 34.1146 28.5609 34.5643L21.1358 41.9894C20.9099 42.2146 20.6155 42.3268 20.3203 42.3268Z" fill="white"/>
<path d="M39.5854 38.6145H31.7084C31.0719 38.6145 30.5554 38.0988 30.5554 37.4616C30.5554 36.8244 31.0719 36.3086 31.7084 36.3086H39.5854C40.2219 36.3086 40.7384 36.8244 40.7384 37.4616C40.7384 38.0988 40.2219 38.6145 39.5854 38.6145Z" fill="white"/>
<path d="M15.2565 54.2491H13.2842C12.6478 54.2491 12.1312 53.7333 12.1312 53.0961V47.2775C12.1312 46.6403 12.6478 46.1245 13.2842 46.1245H19.1028C19.7393 46.1245 20.2558 46.6403 20.2558 47.2775V48.4796C20.2558 49.1168 19.7393 49.6326 19.1028 49.6326C18.4664 49.6326 17.9499 49.1168 17.9499 48.4796V48.4304H14.4372V51.9431H15.2565C15.893 51.9431 16.4095 52.4589 16.4095 53.0961C16.4095 53.7333 15.893 54.2491 15.2565 54.2491Z" fill="white"/>
<path d="M20.3203 55.0197C20.0252 55.0197 19.73 54.9075 19.5048 54.6823L16.1481 51.3256C15.6977 50.8759 15.6977 50.145 16.1481 49.6953C16.5985 49.2449 17.328 49.2449 17.7784 49.6953L20.3203 52.2372L26.9306 45.6269C27.3811 45.1765 28.1105 45.1765 28.5609 45.6269C29.0114 46.0765 29.0114 46.8075 28.5609 47.2572L21.1358 54.6823C20.9099 54.9075 20.6155 55.0197 20.3203 55.0197Z" fill="white"/>
<path d="M39.5854 51.3074H31.7084C31.0719 51.3074 30.5554 50.7916 30.5554 50.1544C30.5554 49.5172 31.0719 49.0015 31.7084 49.0015H39.5854C40.2219 49.0015 40.7384 49.5172 40.7384 50.1544C40.7384 50.7916 40.2219 51.3074 39.5854 51.3074Z" fill="white"/>
</svg>
