<svg width="16" height="14" viewBox="0 0 16 14" fill="none" xmlns="http://www.w3.org/2000/svg">
<path d="M8.29075 6.75123C8.4092 6.75123 8.50522 6.65258 8.50522 6.53089C8.50522 6.4092 8.4092 6.31055 8.29075 6.31055C8.17231 6.31055 8.07629 6.4092 8.07629 6.53089C8.07629 6.65258 8.17231 6.75123 8.29075 6.75123Z" fill="#213463"/>
<path d="M7.55346 7.00978C7.6719 7.00978 7.76793 6.91113 7.76793 6.78944C7.76793 6.66774 7.6719 6.56909 7.55346 6.56909C7.43501 6.56909 7.33899 6.66774 7.33899 6.78944C7.33899 6.91113 7.43501 7.00978 7.55346 7.00978Z" fill="#213463"/>
<path d="M6.81615 7.16847C6.9346 7.16847 7.03062 7.06982 7.03062 6.94813C7.03062 6.82643 6.9346 6.72778 6.81615 6.72778C6.69771 6.72778 6.60168 6.82643 6.60168 6.94813C6.60168 7.06982 6.69771 7.16847 6.81615 7.16847Z" fill="#213463"/>
<path d="M8.29075 9.11914C8.4092 9.11914 8.50522 9.02049 8.50522 8.8988C8.50522 8.77712 8.4092 8.67847 8.29075 8.67847C8.17231 8.67847 8.07629 8.77712 8.07629 8.8988C8.07629 9.02049 8.17231 9.11914 8.29075 9.11914Z" fill="#213463"/>
<path d="M7.55346 9.37772C7.6719 9.37772 7.76793 9.27906 7.76793 9.15736C7.76793 9.03567 7.6719 8.93701 7.55346 8.93701C7.43501 8.93701 7.33899 9.03567 7.33899 9.15736C7.33899 9.27906 7.43501 9.37772 7.55346 9.37772Z" fill="#213463"/>
<path d="M6.81615 9.53641C6.9346 9.53641 7.03062 9.43775 7.03062 9.31606C7.03062 9.19436 6.9346 9.0957 6.81615 9.0957C6.69771 9.0957 6.60168 9.19436 6.60168 9.31606C6.60168 9.43775 6.69771 9.53641 6.81615 9.53641Z" fill="#213463"/>
<path d="M8.35559 11.4841C8.47404 11.4841 8.57006 11.3855 8.57006 11.2638C8.57006 11.1421 8.47404 11.0435 8.35559 11.0435C8.23714 11.0435 8.14111 11.1421 8.14111 11.2638C8.14111 11.3855 8.23714 11.4841 8.35559 11.4841Z" fill="#213463"/>
<path d="M7.61803 11.7428C7.73648 11.7428 7.8325 11.6442 7.8325 11.5225C7.8325 11.4008 7.73648 11.3021 7.61803 11.3021C7.49959 11.3021 7.40356 11.4008 7.40356 11.5225C7.40356 11.6442 7.49959 11.7428 7.61803 11.7428Z" fill="#213463"/>
<path d="M6.88073 11.9014C6.99917 11.9014 7.0952 11.8027 7.0952 11.681C7.0952 11.5593 6.99917 11.4607 6.88073 11.4607C6.76228 11.4607 6.66626 11.5593 6.66626 11.681C6.66626 11.8027 6.76228 11.9014 6.88073 11.9014Z" fill="#213463"/>
<path d="M9.53952 9.86247C9.55127 9.83897 9.58358 9.73908 9.61296 9.61569C9.54833 9.56574 9.50132 9.49817 9.47782 9.42178C9.4455 9.32189 9.45725 9.21613 9.50426 9.12212C9.54245 9.04867 9.60415 8.98991 9.6776 8.95172L9.01069 6.46036C9.01069 6.53675 9.01069 6.58669 9.01069 6.58963C9.01069 6.78353 8.73159 7.11845 7.94716 7.41225C7.13924 7.71485 6.05514 7.88231 4.89467 7.88231C3.73712 7.88231 2.65303 7.71485 1.84217 7.41225C1.05774 7.11845 0.77864 6.78353 0.77864 6.58963C0.77864 6.58082 0.77864 5.36745 0.77864 5.36745C0.987232 5.5026 1.24871 5.63481 1.57188 5.75526C1.85979 5.86396 3.47271 6.15788 3.81351 6.23426C4.04854 6.1755 4.89466 5.99042 4.72427 5.94047C4.26889 5.80533 5.09151 5.54385 4.90054 5.49978C4.822 5.48166 1.61007 4.94158 1.50137 4.86213C0.972543 4.60653 0.775702 4.34506 0.775702 4.18347C0.775702 3.98957 1.0548 3.65465 1.83923 3.36086C2.44738 3.1317 3.21418 2.97893 4.05148 2.92017C4.2542 2.89972 5.48812 2.89972 5.73197 2.92017C6.56928 2.98186 7.33314 3.1317 7.94423 3.36086C8.03824 3.39611 8.12638 3.43137 8.20864 3.46956L7.95598 2.52061C7.10104 2.24151 6.02576 2.09167 4.89467 2.09167C4.03385 2.09167 3.2083 2.17981 2.48263 2.34434C2.47382 2.36196 1.62476 2.59406 1.57482 2.61462C0.91966 2.86141 0.490724 3.29035 0.246877 3.6047C0.273318 3.62821 -0.00578432 3.98675 9.15211e-05 4.78868V11.3667C9.15211e-05 11.8132 0.273318 12.4508 1.57775 12.9385C2.47088 13.2734 3.65192 13.4585 4.90054 13.4585C6.14916 13.4585 7.3302 13.2734 8.22333 12.9385C8.77859 12.7299 9.14583 12.4948 9.38381 12.2598C9.18696 11.5341 9.15465 10.6351 9.53952 9.86247ZM9.01363 11.3667C9.01363 11.5606 8.73453 11.8955 7.9501 12.1893C7.14217 12.4919 6.05808 12.6594 4.8976 12.6594C3.74006 12.6594 2.65597 12.4919 1.8451 12.1893C1.06068 11.8955 0.781578 11.5606 0.781578 11.3667C0.781578 11.3579 0.781578 10.1621 0.781578 10.1621C0.99017 10.2973 1.25165 10.4295 1.57482 10.5499C2.46794 10.8849 3.64899 11.07 4.8976 11.07C6.14622 11.07 7.32726 10.8849 8.22039 10.5499C8.54356 10.4266 8.80504 10.2973 9.01363 10.1621C9.01363 10.1651 9.01363 11.3549 9.01363 11.3667ZM9.01363 8.97816C9.01363 9.17206 8.73453 9.50698 7.9501 9.80078C7.14217 10.1034 6.05808 10.2708 4.8976 10.2708C3.74006 10.2708 2.65597 10.1034 1.8451 9.80078C1.06068 9.50698 0.781578 9.17206 0.781578 8.97816C0.781578 8.96934 0.781578 7.77361 0.781578 7.77361C0.99017 7.90875 1.25165 8.04096 1.57482 8.16142C2.46794 8.49634 3.64899 8.68143 4.8976 8.68143C6.14622 8.68143 7.32726 8.49634 8.22039 8.16142C8.54356 8.03802 8.80504 7.90875 9.01363 7.77361C9.01363 7.77655 9.01363 8.96641 9.01363 8.97816Z" fill="#213463"/>
<path d="M9.79499 4.09832C9.79499 4.09832 9.60696 3.5548 9.03113 3.07886L9.79499 5.92864V4.09832Z" fill="#213463"/>
<path d="M8.54647 4.724C8.39369 4.81801 8.19685 4.91496 7.94713 5.00898C7.1392 5.31158 5.04153 5.43497 4.57734 5.44097C4.57026 5.44106 4.56323 5.44128 4.55626 5.44162C4.10628 5.46348 3.88577 5.99392 3.81055 6.23115C4.1631 6.26347 4.53034 6.29297 4.90051 6.29297C6.14913 6.29297 7.32429 6.09307 8.21742 5.75815C8.42307 5.68176 8.60229 5.5995 8.758 5.51724L8.54647 4.724Z" fill="#213463"/>
<path d="M14.9952 12.6741C14.9012 12.6682 14.813 12.6506 14.7278 12.63C14.5986 12.5977 14.4781 12.5389 14.3665 12.4684C14.1872 12.3538 13.9933 12.2304 13.8611 12.0953C13.8406 12.0747 13.7994 12.0336 13.7994 12.0336C13.5468 11.7868 13.3059 11.4813 13.0973 11.161C12.9651 10.9613 12.8417 10.7556 12.7065 10.5558C12.2335 9.84485 11.5314 9.67739 11.1318 9.41885C11.0143 9.34834 10.9173 9.27783 10.8351 9.20732C10.8733 9.14563 10.888 9.06924 10.8645 8.99286C10.8292 8.88415 10.7264 8.81071 10.6177 8.81071C10.5912 8.81071 10.5677 8.81364 10.5413 8.82246L10.5237 8.82833L10.4414 8.85477L8.27028 0.751993C8.22621 0.584532 8.05287 0.484642 7.88835 0.531649C7.72088 0.575718 7.62099 0.749055 7.668 0.913579L9.84206 9.0428L9.7833 9.06043L9.77449 9.06337C9.63935 9.1045 9.56296 9.25139 9.60409 9.38654C9.63053 9.46586 9.69223 9.52756 9.76568 9.55106C9.72748 9.71265 9.68048 9.87423 9.65697 9.92418C9.18984 10.8555 9.36318 12.0072 9.69223 12.7651C9.90082 13.247 10.2387 13.5114 10.8145 13.4937C12.401 13.5026 12.9944 13.4996 14.0139 13.4996C14.2666 13.4996 14.5222 13.4467 14.531 13.4438C14.7925 13.3792 15.001 13.2411 15.1626 13.0178C15.2655 12.8797 15.1656 12.6858 14.9952 12.6741ZM13.2882 12.6535C12.592 12.1981 12.4862 11.2051 11.7311 10.8437C11.5607 10.7615 11.7106 10.5088 11.878 10.5911C12.6595 10.9642 12.7418 11.9484 13.4351 12.4008C13.5938 12.5037 13.4469 12.7593 13.2882 12.6535Z" fill="#213463"/>
<path d="M15.245 11.0611C15.1186 11.0229 15.0187 10.923 14.9805 10.7966C14.9306 10.6321 14.8572 10.5293 14.7749 10.5293C14.6926 10.5293 14.6192 10.6321 14.5692 10.7966C14.531 10.923 14.4312 11.0229 14.3048 11.0611C14.1403 11.111 14.0375 11.1845 14.0375 11.2667C14.0375 11.349 14.1403 11.4224 14.3048 11.4724C14.4312 11.5106 14.531 11.6105 14.5692 11.7368C14.6192 11.9013 14.6926 12.0041 14.7749 12.0041C14.8572 12.0041 14.9306 11.9013 14.9805 11.7368C15.0187 11.6105 15.1186 11.5106 15.245 11.4724C15.4095 11.4224 15.5123 11.349 15.5123 11.2667C15.5123 11.1815 15.4065 11.1081 15.245 11.0611Z" fill="#213463"/>
<path d="M15.8002 10.0681C15.8002 10.024 15.7444 9.98585 15.6562 9.95941C15.5886 9.93885 15.5358 9.88596 15.5152 9.81839C15.4888 9.73026 15.4506 9.67444 15.4065 9.67444C15.3624 9.67444 15.3242 9.73026 15.2978 9.81839C15.2772 9.88596 15.2243 9.93885 15.1568 9.95941C15.0686 9.98585 15.0128 10.024 15.0128 10.0681C15.0128 10.1122 15.0686 10.1504 15.1568 10.1768C15.2243 10.1974 15.2772 10.2503 15.2978 10.3178C15.3242 10.406 15.3624 10.4618 15.4065 10.4618C15.4506 10.4618 15.4888 10.406 15.5152 10.3178C15.5358 10.2503 15.5886 10.1974 15.6562 10.1768C15.7444 10.1504 15.8002 10.1122 15.8002 10.0681Z" fill="#213463"/>
<path d="M15.8004 11.9249C15.9107 11.9249 16.0001 11.8355 16.0001 11.7252C16.0001 11.6148 15.9107 11.5254 15.8004 11.5254C15.69 11.5254 15.6006 11.6148 15.6006 11.7252C15.6006 11.8355 15.69 11.9249 15.8004 11.9249Z" fill="#213463"/>
<path d="M14.3489 10.4647C14.4593 10.4647 14.5487 10.3753 14.5487 10.265C14.5487 10.1546 14.4593 10.0652 14.3489 10.0652C14.2386 10.0652 14.1492 10.1546 14.1492 10.265C14.1492 10.3753 14.2386 10.4647 14.3489 10.4647Z" fill="#213463"/>
</svg>
