<svg width="22" height="22" viewBox="0 0 22 22" fill="none" xmlns="http://www.w3.org/2000/svg">
<path opacity="0.6" fill-rule="evenodd" clip-rule="evenodd" d="M16.4619 15.3784L18.9466 17.8632C20.5376 16.0227 21.4999 13.6238 21.4999 11.0001C21.4999 8.41872 20.5683 6.05489 19.023 4.22644L16.535 6.7145C17.4533 7.89873 17.9999 9.38557 17.9999 11.0001C17.9999 12.657 17.4241 14.1795 16.4619 15.3784Z" fill="#171717"/>
<path fill-rule="evenodd" clip-rule="evenodd" d="M15.2856 16.5352C14.1013 17.4534 12.6145 18 11 18C7.134 18 4 14.866 4 11C4 7.134 7.134 4 11 4C12.6569 4 14.1794 4.57568 15.3783 5.53793L17.863 3.05317C16.0226 1.46229 13.6237 0.5 11 0.5C5.20101 0.5 0.5 5.20101 0.5 11C0.5 16.799 5.20101 21.5 11 21.5C13.5814 21.5 15.9451 20.5685 17.7737 19.0233L15.2856 16.5352Z" fill="#171717"/>
</svg>
