<svg width="99" height="27" viewBox="0 0 99 27" fill="none" xmlns="http://www.w3.org/2000/svg">
<path d="M29.0275 0.840637L24.8736 13.0055C24.8242 13.1538 24.5769 13.1538 24.5275 13.0055L20.6703 0.840637C20.6209 0.692285 20.522 0.593384 20.3736 0.593384H16.7637C16.5165 0.593384 16.3681 0.791186 16.467 1.03844L22.4011 19.7802C22.4505 19.978 22.6483 20.0769 22.8461 20.0769H26.456C26.6538 20.0769 26.8022 19.978 26.9011 19.7802L33.2307 1.03844C33.2802 0.840636 33.1318 0.593384 32.934 0.593384H29.3242C29.1758 0.642834 29.0275 0.692285 29.0275 0.840637Z" fill="#16448A"/>
<path d="M46.4835 0.840637L42.3297 13.0055C42.2802 13.1538 42.033 13.1538 41.9835 13.0055L38.1264 0.840637C38.0769 0.692285 37.978 0.593384 37.8297 0.593384H34.2198C33.9725 0.593384 33.8242 0.791186 33.9231 1.03844L39.8571 19.7802C39.9066 19.978 40.1044 20.0769 40.3022 20.0769H43.9615C44.1593 20.0769 44.3077 19.978 44.4066 19.7802L50.7362 1.03844C50.7857 0.840636 50.6373 0.593384 50.4395 0.593384H46.8297C46.6813 0.642834 46.533 0.692285 46.4835 0.840637Z" fill="#16448A"/>
<path d="M14.8352 3.80767V1.03844C14.8352 0.791186 14.6374 0.593384 14.3901 0.593384H0.445055C0.197802 0.593384 0 0.791186 0 1.03844V19.6318C0 19.8791 0.197802 20.0769 0.445055 20.0769H14.3901C14.6374 20.0769 14.8352 19.8791 14.8352 19.6318V16.8626C14.8352 16.6154 14.6374 16.4176 14.3901 16.4176H4.7967C4.54945 16.4176 4.35165 16.2198 4.35165 15.9725V12.3132C4.35165 12.0659 4.54945 11.8681 4.7967 11.8681H13.4011C13.6483 11.8681 13.8462 11.6703 13.8462 11.4231V8.65382C13.8462 8.40657 13.6483 8.20877 13.4011 8.20877H4.7967C4.54945 8.20877 4.35165 8.01097 4.35165 7.76371V4.69778C4.35165 4.45053 4.54945 4.25272 4.7967 4.25272H14.3901C14.6374 4.25272 14.8352 4.05492 14.8352 3.80767Z" fill="#16448A"/>
<path d="M61.5164 0C56.2252 0 51.8736 4.64835 51.8736 10.3846C51.8736 16.1209 56.1758 20.7692 61.5164 20.7692C66.8076 20.7692 71.1593 16.1209 71.1593 10.3846C71.1098 4.64835 66.8076 0 61.5164 0ZM61.5164 17.1593C58.5494 17.1593 56.1758 14.0934 56.1758 10.3352C56.1758 6.57693 58.5494 3.51099 61.5164 3.51099C64.4835 3.51099 66.8571 6.57693 66.8571 10.3352C66.8571 14.1429 64.434 17.1593 61.5164 17.1593Z" fill="#16448A"/>
<path d="M98.5549 26.2582H95.7857C95.5879 26.2582 95.4395 26.1099 95.4395 25.9121V23.1428C95.4395 22.945 95.5879 22.7967 95.7857 22.7967H98.5549C98.7527 22.7967 98.901 22.945 98.901 23.1428V25.9121C98.901 26.0604 98.7527 26.2582 98.5549 26.2582Z" fill="#577F43"/>
<path d="M94.2527 13.1539H87.0329C85.1538 11.967 84.5604 11.3242 83.8681 10.6319C83.6703 10.4341 83.6208 10.0879 83.8186 9.89012C84.1153 9.59342 84.2637 9.44507 85.2032 8.85166C85.2527 8.85166 85.3021 8.85166 85.401 8.85166H91.0384C91.6813 8.85166 92.1758 8.35715 92.1758 7.7143V2.07694C92.1758 1.43408 91.6813 0.939575 91.0384 0.939575H85.401C84.7582 0.939575 84.2637 1.43408 84.2637 2.07694V7.66485C83.8186 8.75276 83.7197 9.00001 83.3736 9.34617C83.1758 9.54397 82.9779 9.59342 82.7801 9.34617C82.4834 9.04946 82.3845 8.95056 81.9395 7.76375V2.07694C81.9395 1.43408 81.445 0.939575 80.8021 0.939575H74.5219C73.879 0.939575 73.3845 1.43408 73.3845 2.07694V8.011C73.3845 8.65386 73.879 9.14836 74.5219 9.14836H80.8021C80.901 9.14836 80.9505 9.14836 81.0494 9.09891C81.7417 9.29671 82.0384 9.49452 82.2856 9.69232C82.5329 9.89012 82.434 10.3352 82.1867 10.4341C81.8406 10.6319 81.445 10.7802 80.456 11.1264H75.1647C74.5219 11.1264 74.0274 11.6209 74.0274 12.2637V18.0495C74.0274 18.6923 74.5219 19.1868 75.1647 19.1868H80.6043C81.2472 19.1868 81.7417 18.6923 81.7417 18.0495V12.3626C81.7417 12.3626 81.7417 12.3626 81.7417 12.3132C82.2856 11.4231 82.434 11.2253 82.6812 10.8791C83.0274 10.3846 83.1757 10.5824 83.423 10.8297C84.1153 11.5714 84.7582 12.4121 85.7966 14.0934C85.7966 14.1429 85.7966 14.1923 85.7966 14.2418V21.5604C85.7966 22.2033 86.2911 22.6978 86.934 22.6978H94.2527C94.8956 22.6978 95.3901 22.2033 95.3901 21.5604V14.2418C95.3901 13.6484 94.8956 13.1539 94.2527 13.1539Z" fill="url(#paint0_linear)"/>
<defs>
<linearGradient id="paint0_linear" x1="73.3978" y1="11.8296" x2="95.3926" y2="11.8296" gradientUnits="userSpaceOnUse">
<stop stop-color="#174589"/>
<stop offset="1" stop-color="#567F3B"/>
</linearGradient>
</defs>
</svg>
