<svg width="16" height="16" viewBox="0 0 16 16" fill="none" xmlns="http://www.w3.org/2000/svg">
<path d="M14 0.5H5C4.175 0.5 3.5 1.175 3.5 2V11C3.5 11.825 4.175 12.5 5 12.5H14C14.825 12.5 15.5 11.825 15.5 11V2C15.5 1.175 14.825 0.5 14 0.5ZM14 11H5V2H14V11ZM2 3.5H0.5V14C0.5 14.825 1.175 15.5 2 15.5H12.5V14H2V3.5ZM11 8V5.75C11 5.3375 10.6625 5 10.25 5H8.75V8.75H10.25C10.6625 8.75 11 8.4125 11 8ZM9.5 5.75H10.25V8H9.5V5.75ZM12.5 7.25H13.25V6.5H12.5V5.75H13.25V5H11.75V8.75H12.5V7.25ZM6.5 7.25H7.25C7.6625 7.25 8 6.9125 8 6.5V5.75C8 5.3375 7.6625 5 7.25 5H5.75V8.75H6.5V7.25ZM6.5 5.75H7.25V6.5H6.5V5.75Z" fill="#52575A"/>
</svg>
