<svg width="62" height="57" viewBox="0 0 62 57" fill="none" xmlns="http://www.w3.org/2000/svg">
<path d="M14.4442 44.4341H7.12489C6.47717 44.4341 5.95898 44.9523 5.95898 45.6C5.95898 46.2477 6.47717 46.7659 7.12489 46.7659H14.4442C15.0919 46.7659 15.6101 46.2477 15.6101 45.6C15.6101 44.9523 15.0919 44.4341 14.4442 44.4341Z" fill="#171717"/>
<path d="M14.4442 48.9033H7.12489C6.47717 48.9033 5.95898 49.4215 5.95898 50.0692C5.95898 50.717 6.47717 51.2351 7.12489 51.2351H14.4442C15.0919 51.2351 15.6101 50.717 15.6101 50.0692C15.6101 49.4215 15.0919 48.9033 14.4442 48.9033Z" fill="#171717"/>
<path d="M57.1295 27.3341H46.183C46.5068 26.7511 46.7011 26.0386 46.7011 25.2614V4.40455C46.7659 1.94318 44.758 0 42.3614 0H19.1727C16.7114 0 14.7682 2.00795 14.7682 4.40455V25.2614C14.7682 25.9739 14.9625 26.6864 15.2864 27.3341H4.40455C1.94318 27.3341 0 29.342 0 31.7386V52.5955C0 55.0568 2.00795 57 4.40455 57H27.5284C28.8239 57 29.925 56.417 30.767 55.575C31.5443 56.417 32.7102 57 34.0057 57H57.1295C59.5909 57 61.5341 54.992 61.5341 52.5955V31.7386C61.5341 29.2773 59.5261 27.3341 57.1295 27.3341ZM48.45 29.6659V36.8557L46.183 35.4955C45.7943 35.2364 45.3409 35.2364 44.9523 35.4955L42.6852 36.8557V29.6659H48.45ZM27.8523 2.33182H33.6171V9.52159L31.35 8.16136C30.9614 7.90227 30.508 7.90227 30.1193 8.16136L27.8523 9.52159V2.33182ZM13.0841 29.6659H18.8489V36.8557L16.5818 35.4955C16.1932 35.2364 15.7398 35.2364 15.3511 35.4955L13.0841 36.8557V29.6659ZM29.6011 52.5955C29.6011 53.6966 28.6943 54.6682 27.5284 54.6682H4.40455C3.30341 54.6682 2.33182 53.7614 2.33182 52.5955V31.7386C2.33182 30.6375 3.23864 29.6659 4.40455 29.6659H10.7523V38.9284C10.7523 39.3818 11.0114 39.7705 11.3352 39.9648C11.7239 40.1591 12.1773 40.1591 12.5011 39.9648L15.9341 37.892L19.367 39.9648C19.5614 40.0943 19.7557 40.1591 19.95 40.1591C20.1443 40.1591 20.3386 40.0943 20.533 40.0295C20.9216 39.8352 21.1159 39.4466 21.1159 38.9932V29.6659H27.5284C28.6295 29.6659 29.6011 30.5727 29.6011 31.7386V52.5955ZM19.1727 27.3341C18.0716 27.3341 17.1 26.4273 17.1 25.2614V4.40455C17.1 3.30341 18.0068 2.33182 19.1727 2.33182H25.5205V11.5943C25.5205 12.0477 25.7795 12.4364 26.1034 12.6307C26.2977 12.7602 26.492 12.7602 26.6864 12.7602C26.8807 12.7602 27.1398 12.6955 27.2693 12.5659L30.7023 10.4932L34.1352 12.5659C34.5239 12.7602 34.9773 12.7602 35.3011 12.5659C35.6898 12.3716 35.8841 11.983 35.8841 11.5295V2.33182H42.2318C43.333 2.33182 44.3046 3.23864 44.3046 4.40455V25.2614C44.3046 26.3625 43.3977 27.3341 42.2318 27.3341H19.1727ZM59.2023 52.5955C59.2023 53.6966 58.2955 54.6682 57.1295 54.6682H34.0057C32.9045 54.6682 31.933 53.7614 31.933 52.5955V31.7386C31.933 30.6375 32.8398 29.6659 34.0057 29.6659H40.3534V38.9284C40.3534 39.3818 40.6125 39.7705 40.9364 39.9648C41.325 40.1591 41.7784 40.1591 42.1023 39.9648L45.5352 37.892L48.9682 39.9648C49.1625 40.0943 49.3568 40.1591 49.5511 40.1591C49.7455 40.1591 49.9398 40.0943 50.1341 40.0295C50.5227 39.8352 50.717 39.4466 50.717 38.9932V29.6659H57.0648C58.1659 29.6659 59.1375 30.5727 59.1375 31.7386V52.5955H59.2023Z" fill="#171717"/>
<path d="M44.0454 44.4341H36.7261C36.0784 44.4341 35.5602 44.9523 35.5602 45.6C35.5602 46.2477 36.0784 46.7659 36.7261 46.7659H44.0454C44.6931 46.7659 45.2113 46.2477 45.2113 45.6C45.2113 44.9523 44.6931 44.4341 44.0454 44.4341Z" fill="#171717"/>
<path d="M44.0454 48.9033H36.7261C36.0784 48.9033 35.5602 49.4215 35.5602 50.0692C35.5602 50.717 36.0784 51.2351 36.7261 51.2351H44.0454C44.6931 51.2351 45.2113 50.717 45.2113 50.0692C45.2113 49.4215 44.6931 48.9033 44.0454 48.9033Z" fill="#171717"/>
<path d="M21.8932 19.4319H29.2125C29.8602 19.4319 30.3784 18.9137 30.3784 18.266C30.3784 17.6183 29.8602 17.1001 29.2125 17.1001H21.8932C21.2455 17.1001 20.7273 17.6183 20.7273 18.266C20.7273 18.9137 21.2455 19.4319 21.8932 19.4319Z" fill="#171717"/>
<path d="M30.3784 22.7997C30.3784 22.152 29.8602 21.6338 29.2125 21.6338H21.8932C21.2455 21.6338 20.7273 22.152 20.7273 22.7997C20.7273 23.4474 21.2455 23.9656 21.8932 23.9656H29.2125C29.8602 23.9656 30.3784 23.4474 30.3784 22.7997Z" fill="#171717"/>
</svg>
