<svg width="16" height="16" viewBox="0 0 16 16" fill="none" xmlns="http://www.w3.org/2000/svg">
<path fill-rule="evenodd" clip-rule="evenodd" d="M11.75 2.9525V6.5675C13.88 6.9275 15.5 8.7725 15.5 11C15.5 13.4825 13.4825 15.5 11 15.5C10.2787 15.5006 9.56796 15.3271 8.92814 14.9941C8.28831 14.6611 7.73835 14.1786 7.325 13.5875C6.935 13.76 6.5375 13.9025 6.125 14C2.9 13.2275 0.5 10.04 0.5 6.635V2.9525L6.125 0.5L11.75 2.9525ZM6.6725 12.215C6.56 11.8325 6.5 11.42 6.5 11C6.5 8.7725 8.12 6.9275 10.25 6.5675V3.935L6.125 2.135L2 3.935V6.635C2 9.26 3.7475 11.69 6.125 12.44C6.3125 12.38 6.4925 12.2975 6.6725 12.215ZM8 11C8 12.6575 9.3425 14 11 14C12.6575 14 14 12.6575 14 11C14 9.3425 12.6575 8 11 8C9.3425 8 8 9.3425 8 11ZM10.9999 10.715C11.4638 10.715 11.8399 10.3389 11.8399 9.875C11.8399 9.41108 11.4638 9.035 10.9999 9.035C10.536 9.035 10.1599 9.41108 10.1599 9.875C10.1599 10.3389 10.536 10.715 10.9999 10.715ZM11 11.375C10.4525 11.375 9.35751 11.645 9.32001 12.185C9.69501 12.7175 10.31 13.0625 11 13.0625C11.69 13.0625 12.305 12.7175 12.68 12.185C12.6425 11.645 11.5475 11.375 11 11.375Z" fill="#0095E6"/>
</svg>
