<svg width="26" height="26" viewBox="0 0 26 26" fill="none" xmlns="http://www.w3.org/2000/svg">
<path d="M14.4087 20.2548C14.958 20.0473 15.4815 19.7726 15.9682 19.4366L15.1028 18.083C14.7197 18.3477 14.3075 18.5637 13.875 18.7265L14.4087 20.2548Z" fill="white" fill-opacity="0.7"/>
<path d="M11.8709 5.28125C7.76531 5.28155 4.43726 8.73757 4.4375 13.0005C4.4377 16.222 6.36474 19.1045 9.27141 20.2313L9.81917 18.7094C6.78031 17.5387 5.23092 14.0317 6.35848 10.8764C7.48604 7.72114 10.8636 6.11239 13.9025 7.28315C16.1044 8.1315 17.6072 10.2612 17.7226 12.6969L15.6302 10.5243L14.5237 11.6732L18.5223 15.8226L22.5187 11.6732L21.4122 10.5243L19.2916 12.7262C19.1497 8.57589 15.8706 5.28607 11.8709 5.28125Z" fill="white" fill-opacity="0.7"/>
<path d="M11.1573 19.0482L10.9688 20.6627C11.2731 20.7 11.5948 20.713 11.8898 20.7187C12.1649 20.7186 12.4397 20.7021 12.713 20.6692L12.5354 19.0555C12.3202 19.0806 12.1039 19.0934 11.8874 19.0937C11.648 19.088 11.396 19.0791 11.1573 19.0482Z" fill="white" fill-opacity="0.7"/>
<path d="M4.99222 0L0.818785 4.33333V22.75C0.818785 24.5449 2.22017 26 3.94886 26H22.7293C24.458 26 25.8594 24.5449 25.8594 22.75V3.25C25.8594 1.45507 24.458 0 22.7293 0H4.99222ZM6.0359 1.625H22.7293C23.5936 1.625 24.2943 2.35254 24.2943 3.25V22.75C24.2943 23.6475 23.5936 24.375 22.7293 24.375H3.94886C3.08451 24.375 2.38382 23.6475 2.38382 22.75V5.416L6.03557 5.41667L6.0359 1.625Z" fill="white" fill-opacity="0.7"/>
</svg>
