<svg width="16" height="14" viewBox="0 0 16 14" fill="none" xmlns="http://www.w3.org/2000/svg">
<path d="M3.5 9.25C4.325 9.25 5 9.925 5 10.75C5 11.575 4.325 12.25 3.5 12.25C2.675 12.25 2 11.575 2 10.75C2 9.925 2.675 9.25 3.5 9.25ZM3.5 7.75C1.85 7.75 0.5 9.1 0.5 10.75C0.5 12.4 1.85 13.75 3.5 13.75C5.15 13.75 6.5 12.4 6.5 10.75C6.5 9.1 5.15 7.75 3.5 7.75ZM8 1.75C8.825 1.75 9.5 2.425 9.5 3.25C9.5 4.075 8.825 4.75 8 4.75C7.175 4.75 6.5 4.075 6.5 3.25C6.5 2.425 7.175 1.75 8 1.75ZM8 0.25C6.35 0.25 5 1.6 5 3.25C5 4.9 6.35 6.25 8 6.25C9.65 6.25 11 4.9 11 3.25C11 1.6 9.65 0.25 8 0.25ZM12.5 9.25C13.325 9.25 14 9.925 14 10.75C14 11.575 13.325 12.25 12.5 12.25C11.675 12.25 11 11.575 11 10.75C11 9.925 11.675 9.25 12.5 9.25ZM12.5 7.75C10.85 7.75 9.5 9.1 9.5 10.75C9.5 12.4 10.85 13.75 12.5 13.75C14.15 13.75 15.5 12.4 15.5 10.75C15.5 9.1 14.15 7.75 12.5 7.75Z" fill="#69A6D2"/>
</svg>
