<svg width="65" height="65" viewBox="0 0 65 65" fill="none" xmlns="http://www.w3.org/2000/svg">
<path d="M32 23.6069C32 24.3866 31.4051 25.0274 30.6445 25.1001L30.5 25.1069L16.5 25.1069C12.3579 25.1069 9 21.7491 9 17.6069C9 16.7785 9.67157 16.1069 10.5 16.1069C11.3284 16.1069 12 16.7785 12 17.6069C12 20.0212 13.9012 21.9914 16.2882 22.102L16.5 22.1069L30.5 22.1069C31.3284 22.1069 32 22.7785 32 23.6069Z" fill="#171717"/>
<path d="M32 41.6069C32 40.8272 31.4051 40.1865 30.6445 40.1138L30.5 40.1069H16.5C12.3579 40.1069 9 43.4648 9 47.6069C9 48.4354 9.67157 49.1069 10.5 49.1069C11.3284 49.1069 12 48.4354 12 47.6069C12 45.1927 13.9012 43.2224 16.2882 43.1118L16.5 43.1069H30.5C31.3284 43.1069 32 42.4354 32 41.6069Z" fill="#171717"/>
<path d="M35 48.6069C35 47.8272 34.4051 47.1865 33.6445 47.1138L33.5 47.1069H26.5C22.3579 47.1069 19 50.4648 19 54.6069C19 55.4354 19.6716 56.1069 20.5 56.1069C21.3284 56.1069 22 55.4354 22 54.6069C22 52.1927 23.9012 50.2224 26.2882 50.1118L26.5 50.1069H33.5C34.3284 50.1069 35 49.4354 35 48.6069ZM35 16.6069C35 17.3866 34.4051 18.0274 33.6445 18.1001L33.5 18.1069H26.5C22.3579 18.1069 19 14.7491 19 10.6069C19 9.77851 19.6716 9.10693 20.5 9.10693C21.3284 9.10693 22 9.77851 22 10.6069C22 13.0212 23.9012 14.9914 26.2882 15.102L26.5 15.1069H33.5C34.3284 15.1069 35 15.7785 35 16.6069Z" fill="#171717"/>
<path d="M37 32.6069C37 33.3866 36.4051 34.0274 35.6445 34.1001L35.5 34.1069L9.5 34.1069C8.67157 34.1069 8 33.4354 8 32.6069C8 31.8272 8.59489 31.1865 9.35554 31.1138L9.5 31.1069L35.5 31.1069C36.3284 31.1069 37 31.7785 37 32.6069Z" fill="#171717"/>
<path d="M9 32.6069C9 30.1217 6.98528 28.1069 4.5 28.1069C2.01472 28.1069 0 30.1217 0 32.6069C0 35.0922 2.01472 37.1069 4.5 37.1069C6.98528 37.1069 9 35.0922 9 32.6069ZM6 32.6069C6 33.4354 5.32843 34.1069 4.5 34.1069C3.67157 34.1069 3 33.4354 3 32.6069C3 31.7785 3.67157 31.1069 4.5 31.1069C5.32843 31.1069 6 31.7785 6 32.6069Z" fill="#171717"/>
<path d="M15 51.6069C15 49.1217 12.9853 47.1069 10.5 47.1069C8.01472 47.1069 6 49.1217 6 51.6069C6 54.0922 8.01472 56.1069 10.5 56.1069C12.9853 56.1069 15 54.0922 15 51.6069ZM12 51.6069C12 52.4354 11.3284 53.1069 10.5 53.1069C9.67157 53.1069 9 52.4354 9 51.6069C9 50.7785 9.67157 50.1069 10.5 50.1069C11.3284 50.1069 12 50.7785 12 51.6069Z" fill="#171717"/>
<path d="M15 14.6069C15 12.1217 12.9853 10.1069 10.5 10.1069C8.01472 10.1069 6 12.1217 6 14.6069C6 17.0922 8.01472 19.1069 10.5 19.1069C12.9853 19.1069 15 17.0922 15 14.6069ZM12 14.6069C12 15.4354 11.3284 16.1069 10.5 16.1069C9.67157 16.1069 9 15.4354 9 14.6069C9 13.7785 9.67157 13.1069 10.5 13.1069C11.3284 13.1069 12 13.7785 12 14.6069Z" fill="#171717"/>
<path d="M24 6.60693C24 4.12165 21.9853 2.10693 19.5 2.10693C17.0147 2.10693 15 4.12165 15 6.60693C15 9.09222 17.0147 11.1069 19.5 11.1069C21.9853 11.1069 24 9.09222 24 6.60693ZM21 6.60693C21 7.43536 20.3284 8.10693 19.5 8.10693C18.6716 8.10693 18 7.43536 18 6.60693C18 5.77851 18.6716 5.10693 19.5 5.10693C20.3284 5.10693 21 5.77851 21 6.60693Z" fill="#171717"/>
<path d="M24 58.6069C24 56.1217 21.9853 54.1069 19.5 54.1069C17.0147 54.1069 15 56.1217 15 58.6069C15 61.0922 17.0147 63.1069 19.5 63.1069C21.9853 63.1069 24 61.0922 24 58.6069ZM21 58.6069C21 59.4354 20.3284 60.1069 19.5 60.1069C18.6716 60.1069 18 59.4354 18 58.6069C18 57.7785 18.6716 57.1069 19.5 57.1069C20.3284 57.1069 21 57.7785 21 58.6069Z" fill="#171717"/>
<path d="M47 32.6069C47 33.3866 46.4051 34.0274 45.6445 34.1001L45.5 34.1069H40.5C39.6716 34.1069 39 33.4354 39 32.6069C39 31.8272 39.5949 31.1865 40.3555 31.1138L40.5 31.1069H45.5C46.3284 31.1069 47 31.7785 47 32.6069Z" fill="#171717"/>
<path d="M53 32.6069C53 33.3866 52.4051 34.0274 51.6445 34.1001L51.5 34.1069H50.5C49.6716 34.1069 49 33.4354 49 32.6069C49 31.8272 49.5949 31.1865 50.3555 31.1138L50.5 31.1069H51.5C52.3284 31.1069 53 31.7785 53 32.6069Z" fill="#171717"/>
<path d="M43 23.6069C43 24.3866 42.4051 25.0274 41.6445 25.1001L41.5 25.1069H36.5C35.6716 25.1069 35 24.4354 35 23.6069C35 22.8272 35.5949 22.1865 36.3555 22.1138L36.5 22.1069H41.5C42.3284 22.1069 43 22.7785 43 23.6069Z" fill="#171717"/>
<path d="M49 23.6069C49 24.3866 48.4051 25.0274 47.6445 25.1001L47.5 25.1069H46.5C45.6716 25.1069 45 24.4354 45 23.6069C45 22.8272 45.5949 22.1865 46.3555 22.1138L46.5 22.1069H47.5C48.3284 22.1069 49 22.7785 49 23.6069Z" fill="#171717"/>
<path d="M43 41.6069C43 42.3866 42.4051 43.0274 41.6445 43.1001L41.5 43.1069H36.5C35.6716 43.1069 35 42.4354 35 41.6069C35 40.8272 35.5949 40.1865 36.3555 40.1138L36.5 40.1069H41.5C42.3284 40.1069 43 40.7785 43 41.6069Z" fill="#171717"/>
<path d="M49 41.6069C49 42.3866 48.4051 43.0274 47.6445 43.1001L47.5 43.1069H46.5C45.6716 43.1069 45 42.4354 45 41.6069C45 40.8272 45.5949 40.1865 46.3555 40.1138L46.5 40.1069H47.5C48.3284 40.1069 49 40.7785 49 41.6069Z" fill="#171717"/>
<path d="M41.5 49.1069C41.5 49.8866 40.9051 50.5274 40.1445 50.6001L40 50.6069H39C38.1716 50.6069 37.5 49.9354 37.5 49.1069C37.5 48.3272 38.0949 47.6865 38.8555 47.6138L39 47.6069H40C40.8284 47.6069 41.5 48.2785 41.5 49.1069Z" fill="#171717"/>
<path d="M41.5 17.1069C41.5 17.8866 40.9051 18.5274 40.1445 18.6001L40 18.6069H39C38.1716 18.6069 37.5 17.9354 37.5 17.1069C37.5 16.3272 38.0949 15.6865 38.8555 15.6138L39 15.6069H40C40.8284 15.6069 41.5 16.2785 41.5 17.1069Z" fill="#171717"/>
<path d="M30.5 51.1069C31.2797 51.1069 31.9204 51.7018 31.9931 52.4625L32 52.6069V54.6069C32 58.1187 34.785 60.9801 38.2669 61.1028L38.5 61.1069H39.2199C41.4243 61.1069 43.2113 59.3199 43.2113 57.1155C43.2113 56.8374 43.1822 56.5603 43.1247 56.2886L43.0577 56.019C42.8301 55.2225 43.2914 54.3922 44.0879 54.1646C44.8845 53.9371 45.7147 54.3983 45.9423 55.1949C46.1208 55.8195 46.2113 56.4659 46.2113 57.1155C46.2113 60.8963 43.2102 63.9762 39.4602 64.1029L39.2199 64.1069H38.5C33.3438 64.1069 29.147 59.999 29.0038 54.8774L29 54.6069V52.6069C29 51.7785 29.6716 51.1069 30.5 51.1069Z" fill="#171717"/>
<path d="M56.5408 48.1075C57.3689 48.13 58.022 48.8196 57.9995 49.6477L57.9868 49.9284L57.9612 50.2743L57.9206 50.6806C57.8962 50.898 57.8656 51.1361 57.8277 51.3923C57.6384 52.6701 57.3248 53.9506 56.8525 55.1617C56.0697 57.169 54.9261 58.7923 53.3321 59.855C52.0445 60.7134 49.8674 60.8744 46.6385 60.4602L45.8747 60.3544C45.7442 60.3351 45.6122 60.315 45.4786 60.294L44.6579 60.1582C44.5179 60.134 44.3763 60.1089 44.2331 60.083C43.4179 59.9356 42.8765 59.1553 43.0239 58.3401C43.1713 57.5248 43.9517 56.9835 44.7669 57.1309L45.1311 57.1954L45.8329 57.3117L46.4988 57.4113C46.6067 57.4266 46.7132 57.4411 46.8181 57.455L47.4292 57.5304C47.8243 57.5753 48.1947 57.6098 48.5397 57.6343L49.0381 57.6636L49.4979 57.6782C50.5988 57.6968 51.3336 57.5818 51.668 57.3589C52.6849 56.6809 53.4803 55.5518 54.0575 54.0717C54.44 53.091 54.7015 52.0232 54.86 50.9527C54.9018 50.6708 54.9339 50.4046 54.9577 50.1585L54.9921 49.7331L55.0006 49.5662C55.0231 48.7381 55.7127 48.085 56.5408 48.1075Z" fill="#171717"/>
<path d="M58.1362 39.1521C58.9399 38.9512 59.7543 39.4398 59.9552 40.2435C61.4789 46.3383 59.7382 50.2549 54.7466 51.0869C53.9294 51.2231 53.1566 50.671 53.0204 49.8539C52.8842 49.0367 53.4362 48.2639 54.2534 48.1277C57.2618 47.6263 58.1877 45.5429 57.0448 40.9711C56.8439 40.1674 57.3325 39.353 58.1362 39.1521Z" fill="#171717"/>
<path d="M58.5502 23.446C59.1913 22.9215 60.1364 23.016 60.6609 23.6571C63.5089 27.1379 64.3289 29.5142 63.992 32.7618C63.7406 35.1848 61.5644 38.0864 57.5005 41.7246C56.8833 42.2771 55.935 42.2247 55.3824 41.6075C54.8299 40.9903 54.8823 40.042 55.4995 39.4894C59.0348 36.3245 60.8586 33.8928 61.008 32.4522C61.2575 30.048 60.7058 28.4495 58.3391 25.5568C57.8145 24.9157 57.909 23.9706 58.5502 23.446Z" fill="#171717"/>
<path d="M57.4947 26.3297C57.9976 26.5665 58.5852 26.3421 58.8071 25.8285C60.0119 23.0401 60.1155 21.3291 59.3249 19.2405C58.735 17.6822 56.8296 16.1375 53.5866 14.4294C53.0941 14.1699 52.4969 14.3671 52.2529 14.8697C52.0089 15.3723 52.2103 15.99 52.7029 16.2494C55.524 17.7354 57.1209 19.03 57.4716 19.9564C58.0568 21.5026 57.9871 22.6536 56.9859 24.9709C56.764 25.4845 56.9918 26.0929 57.4947 26.3297Z" fill="#171717"/>
<path d="M44.9091 6.22835C50.5896 3.79387 54.7382 7.11274 56.9472 15.2124C57.1651 16.0116 56.6939 16.8362 55.8947 17.0542C55.0955 17.2722 54.2708 16.801 54.0529 16.0017C52.2619 9.43473 49.7438 7.42026 46.0909 8.98579C45.3295 9.31212 44.4476 8.95939 44.1213 8.19795C43.795 7.4365 44.1477 6.55469 44.9091 6.22835Z" fill="#171717"/>
<path d="M33.7669 1.29851C38.7643 -1.50098 44.7765 0.314964 47.8168 5.88889C48.2135 6.61616 47.9455 7.52731 47.2183 7.92401C46.491 8.3207 45.5798 8.05271 45.1832 7.32544C42.9343 3.20261 38.758 1.94119 35.2331 3.91582C34.7469 4.18819 34.1458 4.7769 33.4717 5.6877C32.5796 6.89293 32.0707 8.33579 32.0069 9.82902L32 10.1497V11.6072C32 12.4356 31.3284 13.1072 30.5 13.1072C29.7203 13.1072 29.0796 12.5123 29.0069 11.7516L29 11.6072V10.1497C29 7.9005 29.7222 5.71074 31.0604 3.9029C31.9654 2.68013 32.8537 1.81008 33.7669 1.29851Z" fill="#171717"/>
</svg>
