<svg width="68" height="62" viewBox="0 0 68 62" fill="none" xmlns="http://www.w3.org/2000/svg">
<path d="M19.3302 44.187L14.8972 43.8295L13.1812 39.6824C12.8237 38.8244 11.9657 38.2524 11.0362 38.2524C10.1067 38.2524 9.2487 38.8244 8.89119 39.6824L7.17519 43.8295L2.74218 44.187C1.81268 44.2585 1.02618 44.902 0.668678 45.8315C0.382678 46.761 0.668678 47.6905 1.38368 48.334L4.81569 51.2655L3.81468 55.627C3.45718 56.5565 3.81468 57.486 4.60119 58.058C5.38769 58.63 6.38869 58.63 7.17519 58.1295L11.0362 55.77L14.8972 58.1295C15.2547 58.344 15.6837 58.487 16.1127 58.487C16.6132 58.487 17.1137 58.344 17.4712 58.058C18.2577 57.486 18.6152 56.5565 18.4007 55.627L17.3997 51.2655L20.8317 48.334C21.5467 47.6905 21.8327 46.761 21.5467 45.8315C21.1177 44.902 20.3312 44.2585 19.3302 44.187ZM15.6122 49.4065C14.9687 49.9785 14.6827 50.8365 14.8257 51.766L15.8267 55.913L12.1802 53.6965C11.8227 53.482 11.3937 53.339 10.9647 53.339C10.5357 53.339 10.1067 53.482 9.7492 53.6965L6.10269 55.913L7.10369 51.766C7.31819 50.908 7.03219 50.05 6.31719 49.4065L3.09968 46.618L7.31819 46.2605C8.17619 46.189 8.96269 45.617 9.3202 44.8305L10.9647 40.8979L12.6092 44.8305C12.9667 45.617 13.6817 46.189 14.6112 46.2605L18.8297 46.618L15.6122 49.4065Z" fill="#171717"/>
<path d="M41.8527 47.6904L37.4197 47.2614L35.7037 43.1859C35.3462 42.3279 34.4882 41.7559 33.5587 41.7559C32.6292 41.7559 31.7712 42.3279 31.4137 43.1859L29.6977 47.3329L25.2646 47.6904C24.3351 47.7619 23.5486 48.4054 23.1911 49.3349C22.9051 50.2644 23.1911 51.1939 23.9061 51.8374L27.3381 54.7689L26.3371 59.1304C26.1226 60.0599 26.4801 60.9894 27.2666 61.5614C28.0531 62.1334 29.0542 62.1334 29.8407 61.6329L33.7017 59.2734L37.5627 61.6329C37.9202 61.8474 38.3492 61.9904 38.7782 61.9904C39.2787 61.9904 39.7792 61.8474 40.1367 61.5614C40.9232 60.9894 41.2807 60.0599 41.0662 59.1304L40.0652 54.7689L43.4972 51.8374C44.2122 51.1939 44.4982 50.2644 44.2122 49.3349C43.6402 48.3339 42.8537 47.7619 41.8527 47.6904ZM38.1347 52.8384C37.4912 53.4104 37.2052 54.2684 37.3482 55.1264L38.3492 59.2734L34.7027 57.0569C34.3452 56.8424 33.9162 56.6994 33.4872 56.6994C33.0582 56.6994 32.6292 56.8424 32.2717 57.0569L28.6252 59.2734L29.6262 55.1264C29.8407 54.2684 29.5547 53.4104 28.8397 52.7669L25.6221 49.9784L29.8407 49.6209C30.6987 49.5494 31.4852 48.9774 31.8427 48.1909L33.4872 44.2584L35.1317 48.1909C35.4892 48.9774 36.2042 49.5494 37.1337 49.6209L41.3522 49.9784L38.1347 52.8384Z" fill="#171717"/>
<path d="M64.3753 44.187L59.9423 43.8295L58.2262 39.6824C57.8687 38.8244 57.0107 38.2524 56.0812 38.2524C55.1517 38.2524 54.2937 38.8244 53.9362 39.6824L52.2202 43.8295L47.7872 44.187C46.8577 44.2585 46.0712 44.902 45.7137 45.8315C45.4277 46.761 45.7137 47.6905 46.4287 48.334L49.8607 51.2655L48.8597 55.627C48.6452 56.5565 49.0027 57.486 49.7892 58.058C50.5757 58.63 51.5767 58.63 52.3632 58.1295L56.2242 55.77L60.0852 58.1295C60.4427 58.344 60.8718 58.487 61.3008 58.487C61.8013 58.487 62.3018 58.344 62.6593 58.058C63.4458 57.486 63.8033 56.5565 63.5888 55.627L62.5878 51.2655L66.0198 48.334C66.7348 47.6905 67.0208 46.761 66.7348 45.8315C66.1628 44.902 65.3763 44.2585 64.3753 44.187ZM60.6573 49.4065C60.0138 49.9785 59.7278 50.8365 59.8708 51.766L60.8718 55.913L57.2252 53.6965C56.8677 53.482 56.4387 53.339 56.0097 53.339C55.5807 53.339 55.1517 53.482 54.7942 53.6965L51.1477 55.913L52.1487 51.766C52.3632 50.908 52.0772 50.05 51.3622 49.4065L48.1447 46.618L52.3632 46.2605C53.2212 46.189 54.0077 45.617 54.3652 44.8305L56.0097 40.8979L57.6542 44.8305C58.0117 45.617 58.7267 46.189 59.6562 46.2605L63.8748 46.618L60.6573 49.4065Z" fill="#171717"/>
<path d="M67.8073 30.9596L67.0208 24.167C66.5918 20.3775 63.8748 17.303 60.3713 16.159C62.3733 14.5145 63.7318 11.9405 63.7318 9.15202C63.7318 4.14701 59.6562 0.0715001 54.6512 0.0715001C49.6462 0.0715001 45.5707 4.14701 45.5707 9.15202C45.5707 12.012 46.8577 14.5145 48.9312 16.159C46.3572 16.9455 44.2122 18.876 43.0682 21.307C42.0672 20.449 40.9232 19.8055 39.6362 19.3765C41.7097 17.732 42.9967 15.158 42.9967 12.3695C42.9967 7.36451 38.9212 3.28901 33.9162 3.28901C28.9112 3.28901 24.8357 7.36451 24.8357 12.3695C24.8357 15.2295 26.1227 17.732 28.1962 19.3765C26.9092 19.734 25.7652 20.3775 24.8357 21.2355C23.6917 18.733 21.5467 16.874 18.9727 16.0875C21.0462 14.443 22.3332 11.869 22.3332 9.08052C22.3332 4.07551 18.2577 0 13.2527 0C8.24765 0 4.17215 4.07551 4.17215 9.08052C4.17215 11.9405 5.45915 14.443 7.53265 16.0875C4.02914 17.16 1.31214 20.2345 0.883139 24.0955L0.0966379 30.8881C-0.260863 32.4611 0.740139 33.8911 2.17014 34.1771C5.67365 34.8921 9.32016 35.3211 13.1097 35.3211C15.6837 35.3211 18.1862 35.1066 20.6172 34.7491C20.6887 36.0361 21.6182 37.1801 22.9052 37.4661C26.4087 38.1811 30.0552 38.6101 33.8447 38.6101C37.5627 38.6101 41.2807 38.2526 44.7842 37.4661C46.0712 37.1801 47.0007 36.0361 47.0722 34.7491C49.5032 35.1066 52.0772 35.3211 54.6512 35.3211C58.3692 35.3211 62.0873 34.9636 65.5908 34.1771C66.9493 33.8911 67.9503 32.4611 67.8073 30.9596ZM48.0017 9.15202C48.0017 5.50551 50.9332 2.574 54.5797 2.574C58.2262 2.574 61.1577 5.50551 61.1577 9.15202C61.1577 12.7985 58.2262 15.73 54.5797 15.73C50.9332 15.73 48.0017 12.7985 48.0017 9.15202ZM27.1952 12.441C27.1952 8.79452 30.1267 5.86301 33.7732 5.86301C37.4197 5.86301 40.3512 8.79452 40.3512 12.441C40.3512 16.0875 37.4197 19.019 33.7732 19.019C30.1982 19.019 27.1952 16.0875 27.1952 12.441ZM6.53165 9.15202C6.53165 5.50551 9.46316 2.574 13.1097 2.574C16.7562 2.574 19.6877 5.50551 19.6877 9.15202C19.6877 12.7985 16.7562 15.73 13.1097 15.73C9.46316 15.73 6.53165 12.7985 6.53165 9.15202ZM2.74214 31.7461C2.45614 31.7461 2.31314 31.5316 2.38464 31.2456L3.17114 24.453C3.60014 20.878 6.60315 18.2325 10.1782 18.2325H13.0382H15.8982C19.1157 18.2325 21.9042 20.449 22.6907 23.5235C21.9757 24.6675 21.4752 26.026 21.2607 27.4561L20.6887 32.2466C14.9687 33.1761 8.53365 33.0331 2.74214 31.7461ZM44.2122 35.0351C37.5627 36.4651 30.0552 36.4651 23.4057 35.0351C23.1912 34.9636 23.0482 34.7491 23.0482 34.5346L23.8347 27.7421C24.2637 24.167 27.2667 21.5215 30.8417 21.5215H36.7047C40.2797 21.5215 43.2827 24.167 43.7117 27.7421L44.4982 34.5346C44.5697 34.7491 44.4267 35.0351 44.2122 35.0351ZM64.9473 31.7461C59.1557 32.9616 52.6492 33.1046 46.7147 32.1751L46.2142 27.4561C46.0712 26.026 45.5707 24.739 44.8557 23.595C45.6422 20.5205 48.4307 18.2325 51.7197 18.2325H54.5797H57.4397C61.0148 18.2325 64.0178 20.878 64.4468 24.453L65.2333 31.2456C65.3763 31.5316 65.2333 31.7461 64.9473 31.7461Z" fill="#171717"/>
</svg>
