<svg width="195" height="40" viewBox="0 0 195 40" fill="none" xmlns="http://www.w3.org/2000/svg">
<path d="M5.1 26.5C6.4 26.2 6.4 25.1 6.4 22.3V15.9C6.4 14.9 6.1 14.4 5.3 14.3V14.1C6.5 14.1 7.4 14.1 7.9 14.1C8.9 14.1 9.9 14.1 10.8 14.1C13.1 14.1 14.9 14.3 16.4 15.4C18 16.5 18.8 18.1 18.8 20.1C18.8 22 18.1 23.7 16.8 24.9C15.4 26.2 13.6 26.6 11.1 26.6C10 26.6 8.8 26.5 7.6 26.5C6.9 26.5 6.1 26.5 5 26.6V26.5H5.1ZM8.5 22.3C8.5 25.9 8.5 26.3 11.1 26.3C14.4 26.3 16.3 24.2 16.3 20.4C16.3 16.4 14.5 14.7 10.7 14.7C10.1 14.7 9.4 14.7 8.6 14.8V22.3H8.5Z" fill="black"/>
<path d="M25.5 17C28.6 17 30.8 19.1 30.8 21.9C30.8 24.6 28.6 26.8 25.6 26.8C22.5 26.8 20.3 24.6 20.3 21.9C20.3 19.1 22.4 17 25.5 17ZM25.5 26.5C27.4 26.5 28.9 24.9 28.9 21.9C28.9 18.9 27.6 17.3 25.5 17.3C23.4 17.3 22.1 18.9 22.1 21.9C22.2 24.9 23.5 26.5 25.5 26.5Z" fill="black"/>
<path d="M36.9 17C40 17 42.2 19.1 42.2 21.9C42.2 24.6 40 26.8 37 26.8C33.9 26.8 31.7 24.6 31.7 21.9C31.7 19.1 33.8 17 36.9 17ZM37 26.5C38.9 26.5 40.4 24.9 40.4 21.9C40.4 18.9 39.1 17.3 37 17.3C34.9 17.3 33.6 18.9 33.6 21.9C33.6 24.9 34.9 26.5 37 26.5Z" fill="black"/>
<path d="M44.2 22.7C44.2 24.9 44.3 26 45.4 26.6V26.7C44.8 26.7 44.4 26.6 44.1 26.6C43.6 26.6 43.1 26.6 42.6 26.7V26.6C43.8 26.1 43.9 24.8 43.9 22.4V19.2C43.9 18.2 43.8 17.7 42.9 17.4V17.3C43.5 17.3 43.9 17.3 44.2 17.3C44.5 17.3 44.9 17.3 45.5 17.3C47.2 19.4 49.4 21.5 51.7 23.8V21.5C51.7 19.1 51.7 18 50.5 17.4V17.3C51.1 17.3 51.5 17.4 51.8 17.4C52.3 17.4 52.8 17.4 53.3 17.3V17.4C52.1 17.9 52 19.1 52 21.5V26.9H51.9C50.2 24.9 47.7 22.1 44.2 18.6V22.4V22.7V22.7Z" fill="black"/>
<path d="M56.5 17.3H62.3L63 19.3H62.9C61.5 17.6 60 17.6 57.8 17.6H57.7C57.5 17.6 57.1 17.6 56.7 17.6V21.4C57.1 21.4 57.4 21.4 57.6 21.4H58.9C60.3 21.4 61.1 21.1 61.5 20.1H61.6V23H61.5C61.1 22 60.3 21.7 58.9 21.7H57.6H57.5C57.4 21.7 57.2 21.7 56.7 21.7V23.2V23.7C56.7 24.8 56.7 25.4 56.9 25.7C57.1 26.1 57.7 26.1 58.6 26.1C60.8 26.1 62.3 25.7 63.4 24.2H63.5L62.8 26.4H57H55.6H55.1C55 26.4 54.6 26.4 54 26.4V26.3C54.9 26.1 55 25.3 55 23.2V18.4C55 17.7 54.8 17.3 54.2 17.2V17.3C54.9 17.3 55.7 17.3 56.5 17.3Z" fill="black"/>
<path d="M67 26.5C67.9 26.3 68 25.5 68 23.4V22.6L65.8 19.6C65 18.6 64.4 17.8 63.7 17.4V17.3C64.3 17.3 64.9 17.4 65.4 17.4C66 17.4 66.7 17.4 67.3 17.3V17.4C66.8 17.5 66.6 17.7 66.6 18C66.6 18.3 66.9 18.7 67.3 19.2L69.5 22C71 19.8 71.9 18.6 71.9 18.1C71.9 17.7 71.7 17.5 71.2 17.4V17.3C71.6 17.3 72 17.4 72.5 17.4C72.9 17.4 73.4 17.4 73.8 17.3V17.4C72.9 17.9 71.5 19.6 69.5 22.5V23.4C69.5 25.5 69.6 26.3 70.5 26.5V26.6C69.7 26.6 69.1 26.6 68.6 26.6C68.1 26.6 67.5 26.6 66.9 26.6V26.5H67Z" fill="black"/>
<path d="M83.8 25.8C82.7 26.5 81.7 26.9 80.5 26.9C78.4 26.9 77 25.7 77 24.4C77 23.2 77.8 22.2 79.5 21.5C79 20.7 78.7 20 78.7 19.3C78.7 17.9 79.8 16.8 81.4 16.8C82.7 16.8 83.6 17.6 83.6 18.6C83.6 19.6 82.8 20.5 81.2 21.1C82.1 22.1 83.1 23.1 84.3 24.2C84.5 23.8 84.6 23.5 84.6 23.1C84.6 22.3 84.1 21.7 83.2 21.6V21.5H86C85.9 22.7 85.5 23.8 84.9 24.7C85.8 25.5 86.7 26.1 87.5 26.6V26.7C86.9 26.7 86.3 26.7 85.6 26.7H84.9L83.8 25.8ZM79.7 21.7C79.1 22.1 78.8 22.7 78.8 23.5C78.8 25 80 26.2 81.7 26.2C82.4 26.2 82.9 26 83.5 25.5C81.8 24.1 80.6 22.9 79.7 21.7ZM82.2 18.9C82.2 17.9 81.6 17.2 80.9 17.2C80.2 17.2 79.7 17.8 79.7 18.5C79.7 19.2 80.1 20 80.9 20.9C81.7 20.5 82.2 19.8 82.2 18.9Z" fill="black"/>
<path d="M91.5 26.4C92.8 26.2 92.8 25 92.8 22.2V15.8C92.8 14.8 92.5 14.3 91.7 14.2V14C93 14 93.9 14 94.4 14C95.4 14 96.5 14 97.7 14C101.6 14 103.5 14.8 103.5 16.8C103.5 18.4 102.2 19.3 99.6 19.6C102.9 19.9 104.6 21 104.6 22.9C104.6 25.2 102.5 26.4 98.2 26.4C97.4 26.4 96 26.3 94 26.3C93.2 26.3 92.3 26.3 91.5 26.3V26.4V26.4ZM95.7 19.7H96.1H97C99.8 19.7 101.2 18.8 101.2 17C101.2 15.3 99.8 14.5 97 14.5C96.5 14.5 95.8 14.5 95 14.6V19.7C95.4 19.7 95.7 19.7 95.7 19.7ZM95 22.3C95 24 95 25 95.1 25.4C95.3 26.1 96.1 26.2 97.7 26.2C100.6 26.2 102.1 25.1 102.1 23.2C102.1 21 100.4 20.2 97.1 20.2H96.1C95.8 20.2 95.4 20.2 94.9 20.2V22.3H95Z" fill="black"/>
<path d="M111.2 17C114.3 17 116.5 19.1 116.5 21.9C116.5 24.6 114.3 26.8 111.3 26.8C108.2 26.8 106 24.6 106 21.9C105.9 19.1 108.1 17 111.2 17ZM111.2 26.5C113.1 26.5 114.6 24.9 114.6 21.9C114.6 18.9 113.3 17.3 111.2 17.3C109.1 17.3 107.8 18.9 107.8 21.9C107.8 24.9 109.1 26.5 111.2 26.5Z" fill="black"/>
<path d="M125.9 21.3C125.9 19.1 125.9 17.9 124.7 17.4V17.3C125.3 17.3 125.7 17.4 126 17.4C126.5 17.4 127 17.4 127.5 17.3V17.4C126.3 17.9 126.2 19.1 126.2 21.5V22.9C126.2 25.6 124.9 26.9 122.1 26.9C119 26.9 117.8 25.7 117.8 23C117.8 22 117.8 21.2 117.8 20.7V18.5C117.8 17.8 117.6 17.5 117 17.4V17.3C117.6 17.3 118.2 17.4 118.6 17.4C119.1 17.4 119.6 17.4 120.2 17.3V17.4C119.6 17.5 119.4 17.9 119.4 18.5V21.6C119.4 23 119.5 24 119.7 24.6C120.1 25.7 121.1 26.4 122.5 26.4C124.6 26.4 125.8 25.2 125.8 22.9V21.4V21.3H125.9Z" fill="black"/>
<path d="M128 26.5C129 26.3 129 25.4 129 23.4V18.6C129 17.9 128.8 17.5 128.2 17.4V17.3C128.7 17.3 129.6 17.3 130.9 17.3H132.8C135.8 17.3 137.3 17.9 137.3 19.5C137.3 20.8 136 21.7 133.7 21.7C135.2 21.9 136.1 22.4 136.7 23.6C137.4 25 137.5 26.2 138.4 26.4V26.6C137.8 26.6 137.4 26.6 137 26.6C136.9 26.6 136.5 26.6 135.9 26.6C135.3 25.1 135.1 23.9 134.5 23.1C133.8 22 132.9 21.9 131.5 21.9H131.2C131.1 21.9 130.9 21.9 130.5 21.9V23.4C130.5 25.5 130.6 26.3 131.5 26.5V26.6C130.7 26.6 130.1 26.6 129.6 26.6C129.1 26.6 128.5 26.6 127.9 26.6V26.5H128ZM131.3 21.5C132.5 21.5 133.3 21.5 133.9 21.4C134.8 21.2 135.5 20.5 135.5 19.6C135.5 18.2 134.4 17.7 132.3 17.7C131.7 17.7 131.1 17.7 130.7 17.7V21.5C131 21.5 131.2 21.5 131.3 21.5Z" fill="black"/>
<path d="M144.4 19.5C145.4 18.7 145.9 18.1 145.9 17.7C145.9 17.5 145.8 17.4 145.5 17.3V17.3C146.1 17.3 146.6 17.3 147 17.3C147.4 17.3 147.9 17.3 148.5 17.3V17.4C147.7 17.7 146.7 18.4 145.3 19.5L142.8 21.5C144.5 21.5 145.3 22 146.1 23.1C147.1 24.5 147.8 25.9 148.9 26.6V26.7C148.3 26.7 147.9 26.7 147.4 26.7C147.2 26.7 146.8 26.7 146.3 26.7C144.4 23.7 143.7 21.9 142.7 21.9C142.2 21.9 142 22.2 142 22.8V23.4C142 25.5 142.1 26.3 143 26.5V26.6C142.2 26.6 141.6 26.6 141.1 26.6C140.6 26.6 140 26.6 139.4 26.6V26.5C140.3 26.3 140.4 25.5 140.4 23.4V18.5C140.4 17.8 140.2 17.5 139.6 17.4V17.3C140.2 17.3 140.8 17.4 141.2 17.4C141.7 17.4 142.2 17.4 142.8 17.3V17.4C142.2 17.5 142 17.9 142 18.5V21.7L144.4 19.5Z" fill="black"/>
<path d="M152.1 17.3H157.9L158.6 19.3H158.5C157.1 17.6 155.6 17.6 153.4 17.6H153.3C153.1 17.6 152.7 17.6 152.3 17.6V21.4C152.7 21.4 153 21.4 153.2 21.4H154.5C155.9 21.4 156.7 21.1 157.1 20.1H157.2V23H157.1C156.7 22 155.9 21.7 154.5 21.7H153.2H153.1C153 21.7 152.8 21.7 152.3 21.7V23.2V23.7C152.3 24.8 152.3 25.4 152.5 25.7C152.7 26.1 153.3 26.1 154.2 26.1C156.4 26.1 157.9 25.7 159 24.2H159.1L158.4 26.4H152.6H151.2H150.7C150.6 26.4 150.2 26.4 149.6 26.4V26.3C150.5 26.1 150.6 25.3 150.6 23.2V18.4C150.6 17.7 150.4 17.3 149.8 17.2V17.3C150.5 17.3 151.3 17.3 152.1 17.3Z" fill="black"/>
<path d="M162 16.7C162.9 16.7 163.7 17.4 163.7 18.3C163.7 19.2 163 19.9 162 19.9C161.1 19.9 160.3 19.2 160.3 18.3C160.3 17.4 161.1 16.7 162 16.7ZM162 17.1C161.3 17.1 160.7 17.7 160.7 18.4C160.7 19.1 161.2 19.7 162 19.7C162.7 19.7 163.2 19.1 163.2 18.4C163.3 17.6 162.8 17.1 162 17.1ZM161.8 19.2H161.4V17.6C161.6 17.6 161.8 17.6 162 17.6C162.3 17.6 162.4 17.6 162.6 17.7C162.7 17.8 162.8 17.9 162.8 18C162.8 18.2 162.7 18.3 162.5 18.4C162.7 18.4 162.7 18.6 162.8 18.8C162.8 19 162.9 19.1 162.9 19.2H162.5C162.5 19.1 162.4 19 162.4 18.8C162.4 18.6 162.3 18.6 162.1 18.6H161.9V19.2H161.8ZM161.8 18.3H162C162.2 18.3 162.4 18.2 162.4 18.1C162.4 18 162.3 17.9 162.1 17.9C162 17.9 161.9 17.9 161.9 17.9V18.3H161.8Z" fill="black"/>
</svg>
