<svg width="54" height="65" viewBox="0 0 54 65" fill="none" xmlns="http://www.w3.org/2000/svg">
<path fill-rule="evenodd" clip-rule="evenodd" d="M43.2863 58.6635C43.2863 60.2453 41.992 61.5396 40.4101 61.5396H5.53662C3.95473 61.5396 2.66045 60.2453 2.66045 58.6635V12.501C2.66045 10.9191 3.95473 9.62481 5.53662 9.62481H6.75899V6.96436H5.53662C2.51665 6.96436 0 9.481 0 12.501V58.6635C0 61.6834 2.51665 64.2001 5.53662 64.2001H40.4101C43.4301 64.2001 45.9468 61.6834 45.9468 58.6635V50.4664C45.0839 50.754 44.2211 50.9697 43.2863 51.1135V58.6635Z" fill="#171717"/>
<path fill-rule="evenodd" clip-rule="evenodd" d="M43.2863 12.501V20.0509C44.2211 20.1947 45.0839 20.4104 45.9468 20.6981V12.501C45.9468 9.481 43.4301 6.96436 40.4101 6.96436H38.972V9.62481H40.4101C41.9201 9.62481 43.2863 10.9191 43.2863 12.501Z" fill="#171717"/>
<path fill-rule="evenodd" clip-rule="evenodd" d="M36.3117 6.96403H28.0427C28.1146 6.67642 28.1146 6.3888 28.1146 6.10118C28.1146 3.15311 25.7418 0.780273 22.7937 0.780273C19.8457 0.780273 17.4728 3.15311 17.4728 6.10118C17.4728 6.3888 17.4728 6.67642 17.5447 6.96403H9.34766V14.4421H36.3117V6.96403ZM22.7937 8.76164C21.3557 8.76164 20.1333 7.53927 20.1333 6.10118C20.1333 4.6631 21.3557 3.44073 22.7937 3.44073C24.2318 3.44073 25.4542 4.6631 25.4542 6.10118C25.4542 7.61117 24.3037 8.76164 22.7937 8.76164Z" fill="#171717"/>
<path fill-rule="evenodd" clip-rule="evenodd" d="M33.5074 21.7046H7.76575V24.365H29.9841C30.9908 23.2865 32.2132 22.4236 33.5074 21.7046Z" fill="#171717"/>
<path fill-rule="evenodd" clip-rule="evenodd" d="M26.7485 28.8228H7.76575V31.4832H25.7418C25.9575 30.5485 26.317 29.6137 26.7485 28.8228Z" fill="#171717"/>
<path fill-rule="evenodd" clip-rule="evenodd" d="M25.1666 35.9414H7.76575V38.6019H25.4542C25.3104 37.6671 25.1666 36.8043 25.1666 35.9414Z" fill="#171717"/>
<path fill-rule="evenodd" clip-rule="evenodd" d="M27.0361 42.9883H7.76575V45.6487H28.8337C28.1865 44.8578 27.5394 43.923 27.0361 42.9883Z" fill="#171717"/>
<path d="M34.4422 50.1064H7.76575V52.7669H34.4422V50.1064Z" fill="#171717"/>
<path fill-rule="evenodd" clip-rule="evenodd" d="M40.9135 22.4956C33.723 22.4956 27.8269 28.3198 27.8269 35.5822C27.8269 42.7726 33.6511 48.6687 40.9135 48.6687C48.1039 48.6687 54 42.8445 54 35.5822C53.9281 28.3917 48.1039 22.4956 40.9135 22.4956ZM40.9135 46.0083C35.1611 46.0083 30.4874 41.3345 30.4874 35.5822C30.4874 29.8298 35.1611 25.1561 40.9135 25.1561C46.6658 25.1561 51.3396 29.8298 51.3396 35.5822C51.3396 41.3345 46.6658 46.0083 40.9135 46.0083Z" fill="#171717"/>
<path fill-rule="evenodd" clip-rule="evenodd" d="M42.2797 34.791C41.8482 34.6472 41.4887 34.5034 41.0573 34.2877C40.4102 34.0001 39.6911 33.7125 39.2597 33.1372C38.9002 32.7058 38.9002 31.9868 39.1159 31.4834C39.4754 30.6206 40.4821 30.4049 41.3449 30.4049C42.783 30.4049 44.1492 31.4115 44.4368 31.4115C45.012 31.4115 44.9401 29.7577 44.4368 29.4701C44.0054 28.8949 42.783 28.6073 42.0639 28.5354V27.6725C42.0639 27.313 41.7763 27.0254 41.4168 27.0254H40.4821C40.1225 27.0254 39.8349 27.313 39.8349 27.6725V28.6792C38.6125 28.9668 37.534 29.6858 37.0307 30.8363C36.6711 31.6992 36.5992 32.8496 37.0307 33.7844C37.6059 35.0787 38.7564 35.6539 39.9787 36.1572C40.4102 36.301 40.7697 36.4448 41.1292 36.5886C42.0639 36.9482 43.1425 37.5234 43.1425 38.6739C43.1425 39.7524 42.5673 40.3277 41.5606 40.6153C40.8416 40.831 39.8349 40.7591 39.044 40.5434C38.5406 40.3996 36.8868 39.5367 36.743 39.5367C36.1678 39.5367 36.2397 41.2624 36.6711 41.6219C37.3183 42.1972 38.9721 42.5567 39.763 42.6286V43.4914C39.763 43.851 40.0506 44.1386 40.4102 44.1386H41.3449C41.7044 44.1386 41.992 43.851 41.992 43.4914V42.4848C44.0054 42.0534 45.4434 40.6872 45.4434 38.5301C45.5153 36.3729 44.0773 35.5101 42.2797 34.791Z" fill="#171717"/>
</svg>
