<svg width="16" height="16" viewBox="0 0 16 16" fill="none" xmlns="http://www.w3.org/2000/svg">
<path d="M0.477791 0.880729C0.217552 0.908005 -0.00138611 1.1524 6.60826e-06 1.41406V10.3029C6.60826e-06 10.5822 0.254101 10.8362 0.533346 10.8363H5.15556L4.60556 12.2585H4.0889C4.0704 12.2575 4.05184 12.2575 4.03334 12.2585C3.7731 12.2858 3.55417 12.5302 3.55557 12.7918V14.5696C3.55559 14.8489 3.80965 15.1029 4.0889 15.1029H11.9111C12.1904 15.1029 12.4444 14.8489 12.4444 14.5696V12.7918C12.4444 12.5126 12.1904 12.2585 11.9111 12.2585H11.3944L10.8444 10.8363H11.9111H15.4667C15.7459 10.8362 16 10.5822 16 10.3029V1.41406C16 1.13482 15.7459 0.880756 15.4667 0.880729H0.533346C0.514844 0.879764 0.496292 0.879764 0.477791 0.880729ZM0.826679 1.60961H15.1867V10.0896H12.546C12.2952 8.9875 11.3426 8.16234 10.2159 8.16234H5.79745C4.67074 8.16234 3.71813 8.9875 3.4674 10.0896H0.826679V1.60961ZM6.57779 2.30295C5.50363 2.30295 4.62223 3.18435 4.62223 4.2585V4.43628H3.55557C3.53706 4.43532 3.51851 4.43532 3.50001 4.43628C3.23977 4.46356 3.02083 4.70795 3.02223 4.96961V6.74739C3.02223 7.02663 3.27632 7.28072 3.55557 7.28072H5.15556C5.43481 7.28072 5.68887 7.02663 5.6889 6.74739V4.2585C5.6889 3.75683 6.07612 3.36962 6.57779 3.36962H9.42223C9.9239 3.36962 10.3111 3.75683 10.3111 4.2585V6.74739C10.3111 7.02663 10.5652 7.28072 10.8444 7.28072H12.4444C12.7237 7.28072 12.9778 7.02663 12.9778 6.74739V4.96961C12.9778 4.69037 12.7237 4.43631 12.4444 4.43628H11.3778V4.2585C11.3778 3.18435 10.4964 2.30295 9.42223 2.30295H6.57779ZM8.00001 3.90295C7.02448 3.90295 6.22223 4.7052 6.22223 5.68072C6.22223 6.65625 7.02448 7.4585 8.00001 7.4585C8.97553 7.4585 9.77778 6.65625 9.77778 5.68072C9.77778 4.7052 8.97553 3.90295 8.00001 3.90295ZM8.00001 4.96961C8.39906 4.96961 8.71112 5.28167 8.71112 5.68072C8.71112 6.07978 8.39906 6.39184 8.00001 6.39184C7.60095 6.39184 7.2889 6.07978 7.2889 5.68072C7.2889 5.28167 7.60095 4.96961 8.00001 4.96961ZM6.30001 10.8363H9.70001L10.2444 12.2585H5.75556L6.30001 10.8363ZM4.33778 12.9963H11.6578V14.4363H4.33778V12.9963Z" fill="#213463"/>
</svg>
