<svg width="16" height="16" viewBox="0 0 16 16" fill="none" xmlns="http://www.w3.org/2000/svg">
<path d="M13.1613 4.64516C14.444 4.64516 15.4839 3.60531 15.4839 2.32258C15.4839 1.03985 14.444 0 13.1613 0C11.8786 0 10.8387 1.03985 10.8387 2.32258C10.8401 3.60472 11.8792 4.64374 13.1613 4.64516ZM13.2974 2.67917L12.7943 2.42766C12.5258 2.29421 12.3655 2.01078 12.3894 1.71185C12.4134 1.41293 12.6168 1.15866 12.9032 1.0697V1.03226C12.9032 0.889733 13.0188 0.774194 13.1613 0.774194C13.3038 0.774194 13.4194 0.889733 13.4194 1.03226V1.0697C13.7255 1.16519 13.9344 1.44811 13.9355 1.76877C13.9355 1.9113 13.8199 2.02684 13.6774 2.02684C13.5349 2.02684 13.4194 1.9113 13.4194 1.76877C13.4191 1.6471 13.3205 1.54854 13.1988 1.54839H13.1237C13.0215 1.54832 12.9326 1.61862 12.9091 1.71817C12.8856 1.81771 12.9337 1.92033 13.0252 1.96599L13.5282 2.2175C13.7968 2.35095 13.9571 2.63438 13.9331 2.93331C13.9092 3.23223 13.7057 3.4865 13.4194 3.57546V3.6129C13.4194 3.75543 13.3038 3.87097 13.1613 3.87097C13.0188 3.87097 12.9032 3.75543 12.9032 3.6129V3.57546C12.5971 3.47997 12.3882 3.19705 12.3871 2.87639C12.3871 2.73386 12.5026 2.61832 12.6452 2.61832C12.7877 2.61832 12.9032 2.73386 12.9032 2.87639C12.9035 2.99806 13.0021 3.09662 13.1237 3.09677H13.1988C13.3011 3.09685 13.39 3.02654 13.4135 2.927C13.437 2.82745 13.3889 2.72483 13.2974 2.67917ZM16 15.7419C16 15.8845 15.8845 16 15.7419 16H0.258065C0.115539 16 0 15.8845 0 15.7419C0 15.5994 0.115539 15.4839 0.258065 15.4839H1.03226V11.6129C1.03226 11.4704 1.1478 11.3548 1.29032 11.3548H4.3871C4.52962 11.3548 4.64516 11.4704 4.64516 11.6129V15.4839H6.19355V8.51613C6.19355 8.3736 6.30909 8.25806 6.45161 8.25806H9.54839C9.69091 8.25806 9.80645 8.3736 9.80645 8.51613V15.4839H11.3548V5.41935C11.3548 5.27683 11.4704 5.16129 11.6129 5.16129H14.7097C14.8522 5.16129 14.9677 5.27683 14.9677 5.41935V15.4839H15.7419C15.8845 15.4839 16 15.5994 16 15.7419ZM1.624 9.9889C1.57558 9.94053 1.54838 9.87489 1.54838 9.80645C1.54838 9.73801 1.57558 9.67237 1.624 9.624L8.66733 2.58065H7.74194C7.59941 2.58065 7.48387 2.46511 7.48387 2.32258C7.48387 2.18006 7.59941 2.06452 7.74194 2.06452H9.29032C9.43259 2.06514 9.54776 2.18031 9.54839 2.32258V3.87097C9.54839 4.01349 9.43285 4.12903 9.29032 4.12903C9.1478 4.12903 9.03226 4.01349 9.03226 3.87097V2.94557L1.9889 9.9889C1.94053 10.0373 1.87489 10.0645 1.80645 10.0645C1.73801 10.0645 1.67237 10.0373 1.624 9.9889Z" fill="#213463"/>
</svg>
