<svg width="16" height="16" viewBox="0 0 16 16" fill="none" xmlns="http://www.w3.org/2000/svg">
<path fill-rule="evenodd" clip-rule="evenodd" d="M9.69565 0H6.27209V1.19825H9.69565V0ZM2.16388 1.54059H13.804V2.73884H2.16388V1.54059ZM1.47913 3.08124H14.4886C14.6475 3.08124 14.7999 3.14436 14.9123 3.25672C15.0246 3.36907 15.0878 3.52146 15.0878 3.68036V13.0951C15.0878 13.426 14.8195 13.6943 14.4886 13.6943H9.26088L10.7844 15.1082L9.96955 15.9863L7.98389 14.1496L5.9948 16L5.17999 15.1219L6.7206 13.6943H1.47913C1.14824 13.6943 0.880005 13.426 0.880005 13.0951V3.68036C0.880005 3.34947 1.14824 3.08124 1.47913 3.08124ZM2.07825 12.496H13.8895V4.27948H2.07825V12.496ZM11.0002 11.0924C10.4336 11.659 9.6651 11.9773 8.86381 11.9773C7.78441 11.9773 6.787 11.4015 6.2473 10.4667C5.7076 9.53189 5.7076 8.38018 6.2473 7.44539C6.787 6.51061 7.78441 5.93475 8.86381 5.93475C9.1947 5.93475 9.46293 6.20299 9.46293 6.53387V8.35692H11.286C11.6169 8.35692 11.8851 8.62515 11.8851 8.95604C11.8851 9.75733 11.5668 10.5258 11.0002 11.0924ZM8.25956 7.22543C8.00165 7.31645 7.7676 7.46448 7.57484 7.65851C7.04819 8.18914 6.89888 8.98752 7.1982 9.67261C7.49751 10.3577 8.18476 10.7906 8.93193 10.7647C9.67909 10.7388 10.3347 10.2593 10.5859 9.55516H8.85868C8.52779 9.55516 8.25956 9.28692 8.25956 8.95604V7.22543ZM10.3564 8.07787H12.7769C13.1078 8.07787 13.376 7.80964 13.376 7.47875C13.376 5.8108 12.0244 4.4584 10.3564 4.45746C10.0256 4.45746 9.75732 4.72569 9.75732 5.05658V7.47875C9.75732 7.80964 10.0256 8.07787 10.3564 8.07787ZM10.9556 5.7567C11.481 5.94106 11.8941 6.35421 12.0785 6.87963H10.9556V5.7567ZM2.90503 7.78864H5.38712V8.98687H2.90503V7.78864ZM4.53122 5.43494H2.90503V6.63318H4.53122V5.43494ZM2.90503 10.1423H4.47473V11.3406H2.90503V10.1423Z" fill="#213463"/>
</svg>
